<?xml version="1.0" encoding="UTF-8"?><svg xmlns="http://www.w3.org/2000/svg" xmlns:xlink="http://www.w3.org/1999/xlink" width="375" zoomAndPan="magnify" viewBox="0 0 375 374.999991" height="374.999991" preserveAspectRatio="xMidYMid meet" version="1.0"><path fill="rgb(38.819885%, 38.038635%, 38.038635%)" d="M 256.648438 54.414062 C 247.765625 28.347656 214.332031 39.058594 194.464844 35.539062 C 178.027344 32.625 163.234375 20.484375 146.832031 16.242188 C 115.828125 8.21875 71.121094 23.410156 53.617188 50.441406 C 35.785156 77.984375 33.976562 117.28125 41.296875 148.371094 C 43.988281 159.804688 50.234375 170.015625 53.027344 181.457031 C 58.191406 202.605469 60.269531 229.835938 59.144531 251.59375 C 58.105469 271.777344 33.636719 304.078125 45.59375 323.054688 C 52.613281 334.191406 67.960938 339.933594 79.355469 345.261719 C 110.265625 359.71875 143.40625 364.511719 177.042969 364.496094 C 189.554688 364.492188 213.097656 360.507812 223.152344 352.179688 C 228.398438 347.832031 227.164062 338.394531 227.921875 332.320312 C 229.917969 316.25 230.011719 296.269531 238.246094 282.03125 C 258.761719 246.5625 284.722656 214.164062 307.539062 180.132812 C 317.910156 164.660156 332.273438 147.035156 336.65625 128.519531 C 341.214844 109.242188 339.4375 78.808594 324.949219 64.125 C 307.917969 46.859375 281.082031 47.5 259.726562 53.828125 M 181.234375 38.53125 C 155.441406 46.554688 137.613281 85.847656 137.570312 111.316406 C 137.265625 119.496094 134.394531 134.4375 142.863281 139.109375 C 139.160156 109.808594 144.957031 65.972656 172.199219 47.988281 C 190.96875 35.59375 233.628906 33.546875 249.519531 51.902344 C 259.378906 63.296875 259.453125 81.226562 257.730469 95.4375 C 254.917969 118.613281 235.296875 133.84375 226.21875 153.664062 C 242.773438 149.003906 261.773438 112.097656 262.640625 95.4375 C 263.515625 78.6875 255.546875 61.28125 276.496094 55.640625 C 318.386719 44.359375 333.207031 82.832031 331.578125 116.035156 C 329.773438 128.375 322.875 146.90625 316.117188 157.636719 C 300.976562 181.671875 286.105469 207.753906 267.300781 229.097656 C 261.300781 235.90625 243.4375 265.5 232.328125 252.105469 C 228.53125 247.523438 233.457031 241.097656 235.890625 237.039062 C 244.28125 223.035156 253.8125 210.25 261.941406 196.011719 C 245.6875 204.011719 242.085938 230.796875 224.894531 240.996094 C 215.886719 246.339844 197.988281 238.414062 196.207031 227.753906 C 194.390625 216.859375 201.074219 202.449219 206.371094 193.367188 C 194.496094 202.136719 197.496094 218.824219 187.332031 226.789062 C 182.007812 230.964844 172.296875 227.84375 166.539062 226.410156 C 160.351562 224.871094 150.792969 224.160156 146.308594 219.15625 C 142.976562 215.433594 144.195312 208.542969 144.1875 203.953125 C 144.167969 193.640625 142.84375 183.449219 140.21875 173.515625 C 140.21875 173.515625 143.183594 206.925781 136.4375 215.441406 C 130.042969 223.511719 103.890625 220.992188 101.886719 211.867188 L 99.203125 181.457031 C 95.71875 191.007812 98.742188 201.300781 95.273438 210.546875 C 93.175781 216.125 81.242188 223.957031 77.507812 215.648438 C 74.128906 208.136719 76.03125 195.015625 75.246094 186.75 C 74.152344 175.214844 70.367188 162.304688 67.445312 151.019531 C 67.445312 151.019531 71.214844 186.027344 71.410156 202.628906 C 71.496094 209.851562 69.328125 225.960938 64.363281 218.523438 C 58.863281 204.238281 60.578125 195.671875 56.996094 181 C 54.308594 169.992188 48.394531 156.652344 45.585938 145.722656 C 38.222656 117.078125 41.183594 83.027344 55.984375 57.058594 C 75.054688 23.605469 126.457031 10.421875 160.0625 26.285156 C 167.050781 29.582031 176.855469 31.847656 181.234375 38.53125 M 97.878906 91.464844 L 98.910156 93.222656 C 100.472656 73.585938 112.960938 47.464844 133.601562 42.5 C 113.242188 34.035156 91.101562 75.085938 97.878906 91.464844 M 291.050781 76.90625 C 295.429688 87.59375 299.714844 97.417969 297.480469 109.320312 C 296.636719 118.8125 290.523438 129.742188 288.402344 139.105469 C 302.285156 127.558594 308.816406 88.78125 291.050781 76.90625 M 223.570312 338.933594 C 174.121094 312.910156 102.679688 299.214844 47.601562 313.789062 C 48.542969 293.144531 61.722656 274.925781 63.355469 254.238281 C 63.90625 247.234375 61.574219 234.335938 66.910156 228.699219 C 75.085938 220.066406 95.039062 222.355469 105.816406 222.484375 C 141.316406 222.90625 180.390625 229.53125 211.664062 247.0625 C 219.621094 251.523438 232.222656 255.574219 237.308594 263.558594 C 241.832031 270.667969 232.964844 279.332031 230.664062 286 C 225.359375 301.363281 223.582031 322.664062 223.574219 338.933594 M 212.148438 340.566406 C 218.558594 344.628906 222.59375 347.898438 217.011719 351.285156 C 184.339844 366.785156 145.6875 358.976562 112.433594 347.113281 C 103.867188 344.054688 79.195312 337.914062 80.078125 325.757812 C 81.011719 312.925781 102.269531 314.972656 110.394531 314.972656 C 145.761719 316.4375 179.890625 323.085938 212.148438 340.566406 Z M 212.148438 340.566406 " fill-opacity="1" fill-rule="nonzero"/></svg>