<?xml version="1.0" encoding="UTF-8"?><svg xmlns="http://www.w3.org/2000/svg" xmlns:xlink="http://www.w3.org/1999/xlink" width="375" zoomAndPan="magnify" viewBox="0 0 375 374.999991" height="374.999991" preserveAspectRatio="xMidYMid meet" version="1.0"><defs><clipPath id="clip-0"><path d="M 8 43.140625 L 366 43.140625 L 366 324 L 8 324 Z M 8 43.140625 " clip-rule="nonzero"/></clipPath></defs><path fill="rgb(34.899902%, 34.118652%, 34.118652%)" d="M 136.414062 142.292969 C 130.652344 142.683594 126.011719 143.761719 122.457031 145.210938 C 118.886719 146.644531 116.441406 148.378906 114.863281 149.90625 C 113.261719 151.421875 112.480469 152.671875 112.023438 153.453125 C 111.59375 154.253906 111.453125 154.585938 111.453125 154.585938 C 111.453125 154.585938 111.738281 154.347656 112.355469 153.726562 C 112.992188 153.128906 114 152.160156 115.6875 151.011719 C 118.988281 148.679688 125.339844 145.792969 136.363281 145.042969 C 141.464844 144.675781 145.589844 145.28125 148.628906 146.539062 C 151.675781 147.792969 153.644531 149.554688 154.910156 151.003906 C 156.164062 152.496094 156.773438 153.71875 157.109375 154.503906 C 157.4375 155.304688 157.574219 155.644531 157.574219 155.644531 C 157.574219 155.644531 157.621094 155.386719 157.59375 154.632812 C 157.523438 153.890625 157.371094 152.59375 156.425781 150.789062 C 155.488281 149.015625 153.703125 146.699219 150.382812 144.816406 C 147.058594 142.917969 142.207031 141.894531 136.414062 142.292969 " fill-opacity="1" fill-rule="nonzero"/><path fill="rgb(34.899902%, 34.118652%, 34.118652%)" d="M 184.414062 100.628906 C 184.789062 100.609375 185.339844 100.585938 185.847656 100.625 C 186.753906 101.078125 187.476562 101.886719 187.726562 102.917969 C 187.824219 103.320312 188.347656 103.179688 188.390625 102.824219 C 188.640625 100.863281 187.292969 99.664062 185.796875 99.605469 C 185.546875 99.417969 185.273438 99.269531 184.886719 99.214844 C 182.992188 98.945312 181.515625 99.851562 180.777344 101.179688 C 180.210938 101.511719 179.9375 102.4375 179.894531 103.003906 C 179.8125 104.171875 180.203125 105.414062 181 106.277344 C 182.113281 107.472656 184.648438 108.21875 185.988281 107.105469 C 186.523438 106.804688 186.957031 106.273438 187.183594 105.433594 C 187.21875 105.300781 187.078125 105.210938 186.964844 105.265625 C 186.621094 105.4375 186.230469 105.578125 185.828125 105.691406 C 184.550781 105.671875 183.207031 105.933594 182.222656 104.863281 C 181.738281 104.335938 181.558594 103.714844 181.5 103.039062 C 181.675781 101.835938 182.789062 100.71875 184.414062 100.628906 " fill-opacity="1" fill-rule="nonzero"/><path fill="rgb(34.899902%, 34.118652%, 34.118652%)" d="M 178.589844 110.039062 C 178.582031 110.101562 178.597656 110.164062 178.597656 110.222656 C 178.535156 110.1875 178.472656 110.160156 178.40625 110.132812 C 178.46875 110.101562 178.527344 110.078125 178.589844 110.039062 Z M 175.203125 100.945312 C 175.035156 101.085938 174.902344 101.226562 174.785156 101.367188 C 174.726562 101.398438 174.664062 101.417969 174.601562 101.453125 C 174.125 101.734375 173.632812 102.085938 173.246094 102.484375 C 172.976562 102.765625 173.023438 103.085938 173.214844 103.292969 C 173.617188 105.074219 174.785156 106.847656 175.632812 108.433594 C 176.125 109.34375 176.898438 110.34375 177.886719 110.273438 C 177.890625 110.296875 177.886719 110.316406 177.898438 110.339844 C 178.820312 112.273438 180.121094 113.738281 180.6875 115.875 C 180.835938 116.441406 181.460938 116.625 181.949219 116.386719 C 183.925781 115.425781 185.945312 113.835938 186.527344 111.667969 C 187 112.035156 187.628906 112.285156 188.15625 112.472656 C 189.410156 112.917969 190.796875 113.058594 192.105469 112.761719 C 192.527344 112.667969 192.8125 112.15625 192.679688 111.746094 C 192.566406 111.382812 192.433594 111.039062 192.296875 110.699219 C 192.40625 109.015625 193.140625 107.339844 192.320312 105.71875 C 191.730469 104.546875 190.628906 103.804688 189.492188 104.664062 C 189.292969 104.8125 189.238281 105.136719 189.492188 105.273438 C 191.628906 106.433594 191.355469 108.273438 191.058594 110.339844 C 190.035156 110.515625 188.964844 110.664062 187.945312 110.425781 C 186.992188 110.207031 186.34375 109.5 185.730469 108.78125 C 185.710938 108.757812 185.664062 108.769531 185.65625 108.800781 C 185.574219 109.160156 185.605469 109.488281 185.714844 109.78125 C 185.511719 110.621094 184.996094 111.496094 184.464844 112.109375 C 183.695312 113 182.71875 113.394531 181.695312 113.789062 C 181.386719 113.136719 181.015625 112.503906 180.578125 111.933594 C 179.875 110.917969 179.160156 109.933594 179.296875 108.847656 C 179.355469 108.796875 179.414062 108.75 179.46875 108.683594 C 179.546875 108.578125 179.519531 108.421875 179.417969 108.355469 C 179.488281 108.171875 179.574219 107.984375 179.699219 107.796875 C 179.773438 107.683594 179.605469 107.550781 179.519531 107.648438 C 179.328125 107.871094 179.164062 108.109375 179.03125 108.363281 C 178.664062 108.421875 178.285156 108.355469 177.941406 108.21875 C 177.355469 107.800781 176.6875 106.496094 176.296875 105.777344 C 176.222656 105.527344 176.152344 105.269531 176.070312 105.023438 C 175.761719 104.101562 175.375 103.496094 174.6875 103.082031 C 174.953125 102.914062 175.207031 102.730469 175.433594 102.535156 C 175.890625 102.15625 176.246094 101.699219 176.683594 101.3125 C 176.734375 101.269531 176.761719 101.222656 176.78125 101.175781 C 176.917969 101.082031 177.046875 100.980469 177.191406 100.890625 C 177.664062 100.601562 178.183594 100.308594 178.738281 100.222656 C 179.316406 100.140625 179.75 100.453125 180.304688 100.265625 C 180.542969 100.1875 180.644531 99.980469 180.605469 99.738281 C 180.589844 99.65625 180.578125 99.578125 180.5625 99.492188 C 180.546875 99.382812 180.480469 99.285156 180.390625 99.203125 C 180.765625 97.761719 181.585938 97.332031 182.210938 95.101562 C 184.082031 95.492188 185.5625 96.71875 187.109375 97.785156 C 186.925781 97.902344 186.757812 98.058594 186.636719 98.277344 C 186.574219 98.390625 186.628906 98.523438 186.75 98.558594 C 187.179688 98.691406 187.234375 98.648438 187.691406 98.582031 C 188.453125 98.476562 188.964844 98.503906 189.726562 98.71875 C 190.410156 98.917969 191.058594 99.1875 191.714844 99.449219 C 191.546875 99.789062 191.433594 100.160156 191.386719 100.578125 C 191.25 101.851562 191.472656 102.855469 190.136719 103.503906 C 189.964844 103.59375 189.953125 103.847656 190.078125 103.972656 C 190.765625 104.664062 191.65625 104.265625 192.15625 103.535156 C 192.945312 102.367188 192.109375 100.542969 193.171875 99.605469 C 193.472656 99.339844 193.394531 98.78125 193.042969 98.597656 C 191.847656 97.976562 190.554688 97.601562 189.214844 97.542969 C 188.808594 97.527344 188.351562 97.492188 187.921875 97.542969 C 186.742188 95.210938 184.164062 94.230469 181.839844 93.417969 C 181.433594 93.277344 180.960938 93.582031 180.855469 93.980469 C 180.515625 95.21875 179.980469 96.265625 179.539062 97.457031 C 179.332031 98.003906 179.34375 98.46875 179.53125 98.90625 C 178.035156 98.757812 176.355469 99.988281 175.203125 100.945312 " fill-opacity="1" fill-rule="nonzero"/><path fill="rgb(34.899902%, 34.118652%, 34.118652%)" d="M 185.066406 70.78125 C 182.5625 75.472656 190.410156 78.902344 193.140625 74.335938 C 195.304688 76.761719 199.472656 76.699219 201.292969 73.628906 C 202.441406 74.804688 205.027344 75.003906 206.65625 73.246094 C 207.621094 72.152344 207.753906 70.949219 207.675781 70.097656 C 207.355469 67.425781 205.714844 67.6875 205.882812 67.515625 C 205.785156 67.765625 207.179688 73.761719 201.703125 72.773438 C 202.246094 71.195312 201.78125 70.660156 201.75 70.546875 C 201.691406 70.609375 201.480469 70.957031 200.960938 71.730469 C 200.65625 72.144531 200.230469 72.699219 199.523438 73.210938 C 198.824219 73.71875 197.835938 74.152344 196.539062 73.953125 C 195.226562 73.742188 194.296875 72.9375 193.894531 72.242188 C 193.453125 71.535156 193.527344 70.847656 193.695312 70.324219 C 193.777344 70.0625 193.90625 69.847656 193.980469 69.648438 C 194.089844 69.46875 194.179688 69.324219 194.25 69.203125 C 194.386719 68.96875 194.4375 68.851562 194.4375 68.851562 C 194.3125 68.914062 193.597656 68.925781 192.8125 69.78125 C 192.578125 70.078125 192.316406 70.457031 192.175781 71 C 192.09375 71.265625 192.101562 71.566406 192.074219 71.890625 C 192.136719 72.332031 192.128906 72.816406 192.667969 73.6875 C 192.566406 73.726562 192.472656 73.765625 192.351562 73.816406 C 191.957031 73.976562 191.4375 74.1875 190.753906 74.347656 C 190.078125 74.484375 189.1875 74.605469 188.238281 74.289062 C 187.289062 73.964844 186.722656 73.328125 186.417969 72.726562 C 186.128906 72.109375 186.0625 71.523438 186.0625 71.058594 C 186.082031 70.355469 186.136719 69.945312 186.148438 69.785156 C 188.953125 70.054688 190.855469 68.675781 191.351562 67.03125 C 191.390625 67.070312 191.417969 67.113281 191.460938 67.148438 C 192.472656 67.988281 193.550781 68.167969 194.347656 68.15625 C 195.160156 68.125 195.746094 67.894531 196.132812 67.660156 C 196.523438 67.421875 196.734375 67.195312 196.851562 67.039062 C 196.960938 66.878906 196.992188 66.804688 196.992188 66.804688 C 196.679688 66.59375 191.457031 67.726562 191.210938 62.519531 C 191.203125 62.125 191.214844 61.839844 191.222656 61.65625 C 191.234375 61.46875 191.226562 61.378906 191.226562 61.378906 C 191.25 61.394531 190.824219 61.449219 190.34375 62.296875 C 190.125 62.722656 189.914062 63.367188 189.972656 64.238281 C 190.015625 64.769531 190.191406 65.410156 190.558594 66.042969 C 188.867188 68.460938 184.511719 68.1875 183.148438 66.285156 C 182.628906 65.558594 182.488281 65.140625 182.457031 65.160156 C 182.457031 65.160156 182.390625 65.246094 182.304688 65.464844 C 182.210938 65.683594 182.105469 66.058594 182.179688 66.648438 C 182.324219 68.011719 183.6875 69.5 186.003906 69.78125 C 185.957031 69.804688 185.917969 69.824219 185.851562 69.875 C 185.648438 70.011719 185.363281 70.265625 185.066406 70.78125 " fill-opacity="1" fill-rule="nonzero"/><path fill="rgb(34.899902%, 34.118652%, 34.118652%)" d="M 175.808594 62.042969 C 175.816406 62.074219 175.433594 61.726562 174.332031 62.058594 C 172.320312 62.777344 171.3125 65.253906 172.332031 67.421875 C 172.957031 68.824219 174.191406 69.558594 175.132812 69.742188 C 176.097656 69.941406 176.832031 69.757812 177.316406 69.546875 C 178.289062 69.082031 178.378906 68.621094 178.394531 68.652344 C 178.417969 68.363281 175.429688 69.015625 174.230469 66.625 C 173.414062 64.863281 174.355469 63.574219 174.878906 62.933594 C 175.132812 62.644531 175.359375 62.4375 175.808594 62.042969 " fill-opacity="1" fill-rule="nonzero"/><path fill="rgb(34.899902%, 34.118652%, 34.118652%)" d="M 151.984375 95.527344 C 152.664062 94.824219 152.601562 94.40625 152.625 94.421875 C 144.652344 95.726562 147.597656 89.8125 147.003906 89.753906 C 147.027344 89.773438 146.546875 89.738281 145.941406 90.585938 C 143.554688 94.222656 148.878906 98.527344 151.984375 95.527344 " fill-opacity="1" fill-rule="nonzero"/><path fill="rgb(34.899902%, 34.118652%, 34.118652%)" d="M 135.226562 86.125 C 134.621094 85.769531 133.679688 85.445312 132.496094 85.703125 C 131.316406 85.976562 130.585938 86.671875 130.175781 87.265625 C 129.136719 88.789062 129.789062 89.773438 129.789062 89.902344 C 130.441406 89.433594 131.695312 86.109375 136.496094 88.234375 C 136.496094 88.234375 136.527344 88.171875 136.53125 88.015625 C 136.539062 87.855469 136.515625 87.605469 136.339844 87.265625 C 136.167969 86.933594 135.847656 86.492188 135.226562 86.125 " fill-opacity="1" fill-rule="nonzero"/><path fill="rgb(34.899902%, 34.118652%, 34.118652%)" d="M 137.476562 91.324219 C 139.707031 88.027344 140.789062 87.402344 144.53125 88.574219 C 144.53125 88.574219 144.550781 88.5 144.519531 88.339844 C 144 85.230469 136.292969 85.4375 137.476562 91.324219 " fill-opacity="1" fill-rule="nonzero"/><path fill="rgb(34.899902%, 34.118652%, 34.118652%)" d="M 199.6875 62.117188 C 199.703125 62.132812 199.335938 62.003906 198.695312 62.5 C 197.691406 63.324219 197.277344 65.089844 198.1875 66.582031 C 199.050781 67.941406 200.625 68.425781 201.769531 68.070312 C 202.492188 67.820312 202.605469 67.5 202.617188 67.519531 C 202.308594 67.128906 198.558594 66.78125 199.433594 63.003906 C 199.449219 62.941406 199.503906 62.726562 199.6875 62.117188 " fill-opacity="1" fill-rule="nonzero"/><path fill="rgb(34.899902%, 34.118652%, 34.118652%)" d="M 155.0625 93.652344 C 153.992188 94.664062 153.945312 96.414062 154.476562 97.726562 C 155.335938 99.832031 157.671875 101.0625 160.042969 100.433594 C 161.285156 100.074219 162.050781 99.328125 162.320312 98.683594 C 162.402344 98.492188 162.417969 98.40625 162.417969 98.40625 C 162.273438 98.417969 162.496094 98.335938 161.34375 98.53125 C 159.167969 98.863281 157.601562 98.855469 156.34375 97.058594 C 156.070312 96.664062 155 94.53125 155.183594 93.675781 C 155.839844 93.800781 156.53125 93.761719 157.203125 93.503906 C 157.691406 93.316406 157.609375 92.644531 157.078125 92.59375 C 156.027344 92.503906 154.800781 92.066406 154.074219 91.269531 C 153.21875 90.332031 153.25 89.226562 152.902344 88.089844 C 152.84375 87.898438 152.585938 87.808594 152.441406 87.96875 C 151.335938 89.136719 151.917969 91.1875 152.847656 92.285156 C 153.449219 93 154.222656 93.464844 155.0625 93.652344 " fill-opacity="1" fill-rule="nonzero"/><path fill="rgb(34.899902%, 34.118652%, 34.118652%)" d="M 123.0625 138.574219 C 127.429688 137.472656 130.835938 137.054688 133.417969 137.125 C 135.996094 137.1875 137.714844 137.660156 138.785156 137.980469 C 139.851562 138.355469 140.292969 138.507812 140.292969 138.507812 C 140.292969 138.507812 140.058594 138.28125 139.257812 137.722656 C 138.4375 137.226562 137 136.371094 134.445312 135.859375 C 131.90625 135.296875 128.285156 135.265625 123.636719 136.085938 C 118.964844 136.800781 113.390625 138.898438 106.355469 138.90625 C 102.859375 138.882812 99.8125 138.019531 97.5625 136.441406 C 95.28125 134.933594 93.859375 132.757812 93.0625 130.691406 C 92.273438 128.597656 92.117188 126.574219 92.332031 124.847656 C 92.5625 123.109375 93.113281 121.652344 93.726562 120.472656 C 94.984375 118.125 96.390625 116.882812 97.257812 116.144531 C 97.703125 115.785156 98.027344 115.53125 98.246094 115.390625 C 98.457031 115.234375 98.554688 115.167969 98.554688 115.167969 C 98.554688 115.167969 98.441406 115.199219 98.199219 115.285156 C 97.945312 115.359375 97.566406 115.515625 97.035156 115.769531 C 96.011719 116.308594 94.304688 117.3125 92.589844 119.6875 C 91.769531 120.882812 90.953125 122.425781 90.503906 124.394531 C 90.066406 126.367188 90.046875 128.753906 90.8125 131.277344 C 91.574219 133.761719 93.140625 136.476562 95.851562 138.457031 C 98.492188 140.5 102.164062 141.566406 106.015625 141.644531 C 109.640625 141.730469 112.824219 141.136719 115.636719 140.503906 C 118.460938 139.835938 120.867188 139.105469 123.0625 138.574219 " fill-opacity="1" fill-rule="nonzero"/><path fill="rgb(34.899902%, 34.118652%, 34.118652%)" d="M 239.816406 131.441406 C 241.519531 131.753906 243.839844 132.058594 246.902344 131.929688 C 249.953125 131.800781 253.753906 131.269531 258.171875 129.625 C 260.25 128.835938 262.105469 127.804688 263.558594 126.480469 C 265.011719 125.167969 265.976562 123.542969 266.367188 121.953125 C 266.757812 120.367188 266.613281 118.933594 266.3125 117.765625 C 266.007812 116.589844 265.515625 115.660156 265.011719 114.941406 C 263.980469 113.496094 262.941406 112.871094 262.285156 112.566406 C 261.621094 112.273438 261.332031 112.21875 261.332031 112.21875 C 261.332031 112.21875 261.46875 112.410156 261.886719 112.808594 C 262.269531 113.25 262.921875 113.941406 263.570312 115.195312 C 264.148438 116.441406 264.820312 118.394531 264.269531 120.769531 C 264 121.925781 263.328125 123.113281 262.160156 124.199219 C 261.007812 125.28125 259.363281 126.214844 257.355469 126.996094 C 253.269531 128.535156 249.699219 129.226562 246.816406 129.605469 C 243.925781 129.992188 241.679688 130.039062 239.984375 130.070312 C 238.289062 130.085938 237.140625 130.066406 236.417969 130.058594 C 235.699219 130.050781 235.398438 130.074219 235.398438 130.074219 C 235.398438 130.074219 235.65625 130.214844 236.332031 130.480469 C 237.007812 130.742188 238.109375 131.109375 239.816406 131.441406 " fill-opacity="1" fill-rule="nonzero"/><path fill="rgb(34.899902%, 34.118652%, 34.118652%)" d="M 178.0625 144.652344 C 180.480469 143.757812 183.734375 142.671875 188.03125 141.414062 C 192.332031 140.179688 197.734375 138.867188 204.492188 137.976562 C 217.171875 136.375 225.378906 137.160156 230.316406 137.519531 C 232.800781 137.699219 234.476562 137.917969 235.539062 138.007812 C 236.605469 138.101562 237.050781 138.113281 237.050781 138.113281 C 237.050781 138.113281 236.773438 137.960938 235.925781 137.644531 C 235.070312 137.359375 233.667969 136.792969 231.351562 136.285156 C 230.191406 136.019531 228.820312 135.6875 227.175781 135.457031 C 226.351562 135.335938 225.464844 135.203125 224.511719 135.058594 C 223.554688 134.964844 222.523438 134.867188 221.421875 134.761719 C 217.019531 134.425781 211.394531 134.339844 204.402344 135.226562 C 197.410156 136.121094 191.855469 137.636719 187.492188 139.152344 C 183.132812 140.683594 179.914062 142.132812 177.582031 143.359375 C 175.226562 144.558594 173.746094 145.511719 172.820312 146.109375 C 171.890625 146.710938 171.535156 146.976562 171.535156 146.976562 C 171.535156 146.976562 171.96875 146.863281 172.996094 146.503906 C 174.019531 146.128906 175.644531 145.539062 178.0625 144.652344 " fill-opacity="1" fill-rule="nonzero"/><path fill="rgb(34.899902%, 34.118652%, 34.118652%)" d="M 105.277344 146.324219 C 104.058594 146.121094 102.035156 146.089844 98.859375 144.972656 C 95.703125 143.773438 94.058594 142.265625 92.992188 141.425781 C 92.464844 140.992188 92.101562 140.683594 91.855469 140.480469 C 91.609375 140.289062 91.480469 140.21875 91.480469 140.21875 C 91.480469 140.21875 91.453125 140.363281 91.480469 140.6875 C 91.503906 141.015625 91.570312 141.535156 91.871094 142.230469 C 92.152344 142.9375 92.679688 143.816406 93.597656 144.792969 C 94.515625 145.753906 95.875 146.78125 97.78125 147.5 C 101.402344 148.824219 103.957031 148.21875 105.265625 147.714844 C 105.9375 147.472656 106.351562 147.179688 106.601562 146.996094 C 106.855469 146.816406 106.941406 146.714844 106.941406 146.714844 C 106.941406 146.714844 106.835938 146.640625 106.570312 146.566406 C 106.300781 146.472656 105.894531 146.4375 105.277344 146.324219 " fill-opacity="1" fill-rule="nonzero"/><path fill="rgb(34.899902%, 34.118652%, 34.118652%)" d="M 260.597656 131.355469 C 259.722656 131.652344 258.503906 132.339844 256.371094 133.328125 C 254.210938 134.28125 252.71875 134.65625 251.785156 135.007812 C 251.324219 135.179688 250.992188 135.304688 250.78125 135.410156 C 250.570312 135.519531 250.480469 135.589844 250.480469 135.589844 C 250.480469 135.589844 250.550781 135.6875 250.746094 135.839844 C 250.941406 135.996094 251.269531 136.210938 251.78125 136.386719 C 252.785156 136.722656 254.707031 137.027344 257.359375 135.890625 C 259.820312 134.785156 260.917969 133.351562 261.414062 132.46875 C 261.671875 132.019531 261.777344 131.667969 261.832031 131.445312 C 261.886719 131.214844 261.886719 131.105469 261.886719 131.105469 C 261.886719 131.105469 261.449219 131.042969 260.597656 131.355469 " fill-opacity="1" fill-rule="nonzero"/><path fill="rgb(34.899902%, 34.118652%, 34.118652%)" d="M 62.132812 114.988281 C 62.929688 115.457031 63.6875 115.984375 64.605469 116.171875 C 65.71875 116.390625 66.386719 115.179688 65.675781 114.324219 C 65.082031 113.609375 64.25 113.191406 63.460938 112.710938 C 62.011719 111.824219 60.660156 114.136719 62.132812 114.988281 " fill-opacity="1" fill-rule="nonzero"/><path fill="rgb(34.899902%, 34.118652%, 34.118652%)" d="M 69.835938 125.445312 C 71.257812 125.945312 73.292969 125.1875 73.292969 123.46875 C 73.292969 121.742188 71.253906 120.988281 69.835938 121.496094 C 67.902344 122.179688 67.894531 124.757812 69.835938 125.445312 " fill-opacity="1" fill-rule="nonzero"/><path fill="rgb(34.899902%, 34.118652%, 34.118652%)" d="M 78.355469 102.660156 C 78.953125 102.648438 79.5625 102.640625 80.140625 102.46875 C 81.042969 102.191406 81.769531 101.328125 81.769531 100.355469 C 81.769531 99.375 81.039062 98.535156 80.140625 98.246094 C 79.566406 98.058594 78.949219 98.0625 78.355469 98.050781 C 77.152344 98.023438 76 99.132812 76.054688 100.355469 C 76.105469 101.582031 77.0625 102.6875 78.355469 102.660156 " fill-opacity="1" fill-rule="nonzero"/><path fill="rgb(34.899902%, 34.118652%, 34.118652%)" d="M 97.472656 99.957031 C 97.675781 100.007812 97.902344 100.066406 98.113281 100.066406 C 98.339844 100.074219 98.546875 100.027344 98.734375 99.925781 C 98.933594 99.816406 98.984375 99.804688 98.890625 99.882812 C 99.933594 99.710938 100.109375 98.3125 99.480469 97.644531 C 99.4375 97.597656 99.390625 97.546875 99.34375 97.503906 C 99.46875 97.710938 99.59375 97.925781 99.714844 98.136719 C 99.328125 97.121094 98.363281 96.574219 97.277344 96.589844 C 96.652344 96.601562 96.070312 96.976562 95.839844 97.558594 C 95.628906 98.089844 95.667969 98.890625 96.164062 99.28125 C 96.578125 99.605469 96.960938 99.832031 97.472656 99.957031 " fill-opacity="1" fill-rule="nonzero"/><path fill="rgb(34.899902%, 34.118652%, 34.118652%)" d="M 264.765625 94.53125 C 266.707031 95.796875 269.222656 93.277344 267.960938 91.332031 C 267.390625 90.457031 266.890625 89.992188 265.890625 89.597656 C 264.320312 88.976562 262.414062 90.882812 263.035156 92.460938 C 263.429688 93.457031 263.886719 93.964844 264.765625 94.53125 " fill-opacity="1" fill-rule="nonzero"/><path fill="rgb(34.899902%, 34.118652%, 34.118652%)" d="M 293.136719 107.445312 C 293.828125 108.222656 295.269531 108.222656 295.96875 107.445312 C 296 107.410156 296.035156 107.375 296.066406 107.339844 C 296.652344 106.683594 296.859375 105.8125 296.511719 104.992188 C 296.195312 104.238281 295.402344 103.632812 294.550781 103.671875 C 292.660156 103.753906 291.773438 105.929688 293.035156 107.339844 C 293.066406 107.375 293.105469 107.410156 293.136719 107.445312 " fill-opacity="1" fill-rule="nonzero"/><path fill="rgb(34.899902%, 34.118652%, 34.118652%)" d="M 286.574219 126.289062 C 289.664062 126.289062 289.667969 121.488281 286.574219 121.488281 C 283.484375 121.488281 283.480469 126.289062 286.574219 126.289062 " fill-opacity="1" fill-rule="nonzero"/><path fill="rgb(34.899902%, 34.118652%, 34.118652%)" d="M 302.945312 124.105469 C 304.84375 124.105469 304.847656 121.152344 302.945312 121.152344 C 301.046875 121.152344 301.042969 124.105469 302.945312 124.105469 " fill-opacity="1" fill-rule="nonzero"/><path fill="rgb(34.899902%, 34.118652%, 34.118652%)" d="M 59.988281 167.113281 C 61.242188 167.707031 62.8125 167.003906 62.8125 165.488281 C 62.8125 163.980469 61.242188 163.273438 59.988281 163.871094 C 59.566406 164.074219 59.320312 164.386719 59.0625 164.765625 C 58.796875 165.160156 58.796875 165.820312 59.0625 166.214844 C 59.320312 166.597656 59.566406 166.90625 59.988281 167.113281 " fill-opacity="1" fill-rule="nonzero"/><path fill="rgb(34.899902%, 34.118652%, 34.118652%)" d="M 77.929688 178.3125 C 79.125 179.660156 81.570312 178.597656 81.492188 176.835938 C 81.457031 176.109375 81.101562 175.410156 80.457031 175.035156 C 79.699219 174.59375 78.539062 174.675781 77.929688 175.359375 C 77.898438 175.402344 77.863281 175.433594 77.832031 175.472656 C 77.109375 176.289062 77.105469 177.378906 77.832031 178.203125 C 77.863281 178.238281 77.898438 178.277344 77.929688 178.3125 " fill-opacity="1" fill-rule="nonzero"/><path fill="rgb(34.899902%, 34.118652%, 34.118652%)" d="M 119.496094 187.132812 C 121.929688 187.132812 121.933594 183.351562 119.496094 183.351562 C 117.066406 183.351562 117.0625 187.132812 119.496094 187.132812 " fill-opacity="1" fill-rule="nonzero"/><path fill="rgb(34.899902%, 34.118652%, 34.118652%)" d="M 119.078125 195.078125 C 120.632812 195.078125 121.582031 193.023438 120.386719 191.917969 C 120.347656 191.882812 120.3125 191.851562 120.277344 191.816406 C 119.582031 191.175781 118.570312 191.171875 117.875 191.816406 L 117.769531 191.917969 C 116.566406 193.027344 117.519531 195.078125 119.078125 195.078125 " fill-opacity="1" fill-rule="nonzero"/><path fill="rgb(34.899902%, 34.118652%, 34.118652%)" d="M 203.039062 185.109375 C 200.703125 185.109375 200.703125 188.734375 203.039062 188.734375 C 205.367188 188.734375 205.367188 185.109375 203.039062 185.109375 " fill-opacity="1" fill-rule="nonzero"/><path fill="rgb(34.899902%, 34.118652%, 34.118652%)" d="M 184.144531 188.398438 C 181.183594 188.398438 181.175781 193.007812 184.144531 193.007812 C 187.105469 193.007812 187.109375 188.398438 184.144531 188.398438 " fill-opacity="1" fill-rule="nonzero"/><path fill="rgb(34.899902%, 34.118652%, 34.118652%)" d="M 221.929688 190.355469 C 219.316406 190.355469 219.3125 194.414062 221.929688 194.414062 C 224.535156 194.414062 224.539062 190.355469 221.929688 190.355469 " fill-opacity="1" fill-rule="nonzero"/><path fill="rgb(34.899902%, 34.118652%, 34.118652%)" d="M 288.921875 169.652344 C 288.859375 169.664062 288.789062 169.679688 288.726562 169.695312 C 286.65625 170.207031 286.65625 173.382812 288.726562 173.894531 C 288.789062 173.90625 288.859375 173.925781 288.921875 173.941406 C 290.324219 174.285156 291.734375 173.265625 291.734375 171.796875 C 291.734375 170.332031 290.324219 169.304688 288.921875 169.652344 " fill-opacity="1" fill-rule="nonzero"/><path fill="rgb(34.899902%, 34.118652%, 34.118652%)" d="M 316.378906 155.613281 C 315.394531 155.613281 314.449219 156.484375 314.492188 157.507812 C 314.539062 158.53125 315.324219 159.398438 316.378906 159.398438 C 317.371094 159.398438 318.316406 158.527344 318.269531 157.507812 C 318.222656 156.480469 317.441406 155.613281 316.378906 155.613281 " fill-opacity="1" fill-rule="nonzero"/><path fill="rgb(34.899902%, 34.118652%, 34.118652%)" d="M 72.480469 208.488281 C 71.449219 208.488281 70.464844 209.390625 70.511719 210.453125 C 70.5625 211.519531 71.378906 212.425781 72.480469 212.425781 C 73.507812 212.425781 74.496094 211.519531 74.449219 210.453125 C 74.398438 209.386719 73.582031 208.488281 72.480469 208.488281 " fill-opacity="1" fill-rule="nonzero"/><path fill="rgb(34.899902%, 34.118652%, 34.118652%)" d="M 93.46875 218.734375 C 92.308594 218.734375 91.191406 219.761719 91.246094 220.960938 C 91.300781 222.167969 92.226562 223.1875 93.46875 223.1875 C 94.632812 223.1875 95.746094 222.164062 95.695312 220.960938 C 95.640625 219.757812 94.714844 218.734375 93.46875 218.734375 " fill-opacity="1" fill-rule="nonzero"/><path fill="rgb(34.899902%, 34.118652%, 34.118652%)" d="M 127.894531 227.457031 C 126.894531 227.457031 125.9375 228.335938 125.984375 229.363281 C 126.03125 230.402344 126.824219 231.277344 127.894531 231.277344 C 128.890625 231.277344 129.84375 230.398438 129.804688 229.363281 C 129.753906 228.332031 128.960938 227.457031 127.894531 227.457031 " fill-opacity="1" fill-rule="nonzero"/><path fill="rgb(34.899902%, 34.118652%, 34.118652%)" d="M 145.105469 233.621094 C 144.03125 233.621094 143.007812 234.5625 143.058594 235.671875 C 143.109375 236.777344 143.957031 237.714844 145.105469 237.714844 C 146.175781 237.714844 147.199219 236.773438 147.148438 235.671875 C 147.097656 234.558594 146.25 233.621094 145.105469 233.621094 " fill-opacity="1" fill-rule="nonzero"/><path fill="rgb(34.899902%, 34.118652%, 34.118652%)" d="M 194.203125 227.765625 C 192.945312 227.765625 191.746094 228.875 191.800781 230.175781 C 191.859375 231.472656 192.855469 232.574219 194.203125 232.574219 C 195.457031 232.574219 196.660156 231.472656 196.601562 230.175781 C 196.546875 228.871094 195.550781 227.765625 194.203125 227.765625 " fill-opacity="1" fill-rule="nonzero"/><path fill="rgb(34.899902%, 34.118652%, 34.118652%)" d="M 215.078125 231.941406 C 214.648438 231.613281 214.097656 231.613281 213.664062 231.941406 C 213.164062 232.324219 212.839844 232.859375 213.023438 233.519531 C 213.183594 234.109375 213.757812 234.546875 214.371094 234.546875 C 214.9375 234.546875 215.425781 234.195312 215.644531 233.6875 C 215.953125 232.996094 215.628906 232.363281 215.078125 231.941406 " fill-opacity="1" fill-rule="nonzero"/><path fill="rgb(34.899902%, 34.118652%, 34.118652%)" d="M 265.402344 221.871094 C 265.339844 221.835938 265.296875 221.78125 265.238281 221.738281 C 265.238281 221.734375 265.234375 221.734375 265.230469 221.734375 C 265.289062 221.78125 265.347656 221.828125 265.402344 221.871094 " fill-opacity="1" fill-rule="nonzero"/><path fill="rgb(34.899902%, 34.118652%, 34.118652%)" d="M 267.640625 217.996094 C 267.578125 217.972656 267.515625 217.945312 267.449219 217.921875 C 266.691406 217.617188 265.804688 218.007812 265.238281 218.503906 C 264.167969 219.339844 264.167969 220.902344 265.238281 221.738281 C 265.804688 222.234375 266.691406 222.628906 267.449219 222.320312 C 267.515625 222.296875 267.578125 222.269531 267.640625 222.246094 C 268.519531 221.886719 269.300781 221.164062 269.25 220.121094 C 269.207031 219.070312 268.582031 218.378906 267.640625 217.996094 " fill-opacity="1" fill-rule="nonzero"/><path fill="rgb(34.899902%, 34.118652%, 34.118652%)" d="M 265.230469 218.507812 C 265.234375 218.507812 265.238281 218.507812 265.238281 218.503906 C 265.296875 218.460938 265.339844 218.40625 265.402344 218.371094 C 265.347656 218.417969 265.289062 218.460938 265.230469 218.507812 " fill-opacity="1" fill-rule="nonzero"/><path fill="rgb(34.899902%, 34.118652%, 34.118652%)" d="M 290.066406 217.570312 C 289.539062 217.183594 288.878906 217.335938 288.28125 217.417969 C 287.320312 217.539062 286.535156 218.300781 286.820312 219.335938 C 287.074219 220.257812 288.207031 220.765625 289.042969 220.242188 C 289.652344 219.863281 290.363281 219.507812 290.554688 218.769531 C 290.683594 218.273438 290.460938 217.851562 290.066406 217.570312 " fill-opacity="1" fill-rule="nonzero"/><path fill="rgb(34.899902%, 34.118652%, 34.118652%)" d="M 310.925781 201 C 308.492188 201 308.488281 204.78125 310.925781 204.78125 C 313.355469 204.78125 313.359375 201 310.925781 201 " fill-opacity="1" fill-rule="nonzero"/><path fill="rgb(34.899902%, 34.118652%, 34.118652%)" d="M 59.34375 244.367188 C 60.273438 244.582031 61.507812 244.117188 61.804688 243.113281 C 62.117188 242.632812 62.105469 242.070312 61.753906 241.601562 C 61.671875 241.347656 61.53125 241.125 61.332031 240.945312 C 60.980469 240.585938 60.394531 240.320312 59.886719 240.34375 C 58.859375 240.390625 58.015625 241.082031 57.875 242.121094 C 57.746094 243.082031 58.347656 244.144531 59.34375 244.367188 " fill-opacity="1" fill-rule="nonzero"/><path fill="rgb(34.899902%, 34.118652%, 34.118652%)" d="M 88.433594 260.332031 C 89.460938 260.332031 90.445312 259.425781 90.402344 258.359375 C 90.351562 257.292969 89.535156 256.390625 88.433594 256.390625 C 87.40625 256.390625 86.417969 257.300781 86.464844 258.359375 C 86.515625 259.429688 87.324219 260.332031 88.433594 260.332031 " fill-opacity="1" fill-rule="nonzero"/><path fill="rgb(34.899902%, 34.118652%, 34.118652%)" d="M 126.460938 273.078125 C 127.078125 273.257812 127.664062 273.226562 128.296875 273.179688 C 129.199219 273.113281 130.128906 272.570312 130.34375 271.617188 C 130.550781 270.730469 130.222656 269.664062 129.367188 269.214844 C 129.070312 269.0625 128.777344 268.902344 128.464844 268.773438 C 128.003906 268.574219 127.589844 268.507812 127.085938 268.441406 C 125.929688 268.296875 124.910156 269.457031 124.769531 270.488281 C 124.613281 271.648438 125.324219 272.75 126.460938 273.078125 " fill-opacity="1" fill-rule="nonzero"/><path fill="rgb(34.899902%, 34.118652%, 34.118652%)" d="M 161.894531 274.140625 C 162.894531 274.140625 163.851562 273.257812 163.804688 272.230469 C 163.757812 271.195312 162.964844 270.316406 161.894531 270.316406 C 160.894531 270.316406 159.941406 271.199219 159.988281 272.230469 C 160.035156 273.265625 160.824219 274.140625 161.894531 274.140625 " fill-opacity="1" fill-rule="nonzero"/><path fill="rgb(34.899902%, 34.118652%, 34.118652%)" d="M 218.078125 274.25 C 218.828125 273.871094 219.5 273.074219 219.628906 272.207031 C 219.636719 272.175781 219.640625 272.144531 219.648438 272.113281 C 219.65625 272.105469 219.667969 272.097656 219.675781 272.085938 C 220.789062 270.765625 219.46875 269.074219 217.925781 269.679688 C 217.851562 269.675781 217.773438 269.683594 217.691406 269.691406 C 216.824219 269.59375 215.882812 270.046875 215.308594 270.664062 C 214.535156 271.503906 214.425781 272.75 215.132812 273.660156 C 215.847656 274.589844 217.050781 274.773438 218.078125 274.25 " fill-opacity="1" fill-rule="nonzero"/><path fill="rgb(34.899902%, 34.118652%, 34.118652%)" d="M 271.402344 260.21875 C 271.460938 260.230469 271.519531 260.242188 271.582031 260.253906 C 272.5625 260.425781 273.382812 259.992188 273.726562 259.035156 C 273.746094 258.996094 273.757812 258.957031 273.773438 258.917969 C 274.117188 258.15625 273.851562 257.34375 273.023438 257.066406 C 272.84375 257.015625 272.675781 256.957031 272.507812 256.882812 C 271.789062 256.585938 270.914062 257.085938 270.535156 257.683594 C 270.503906 257.738281 270.46875 257.792969 270.4375 257.847656 C 269.917969 258.667969 270.382812 260.042969 271.402344 260.21875 " fill-opacity="1" fill-rule="nonzero"/><path fill="rgb(34.899902%, 34.118652%, 34.118652%)" d="M 303.367188 251.835938 C 306.859375 251.835938 306.867188 246.398438 303.367188 246.398438 C 299.871094 246.398438 299.867188 251.835938 303.367188 251.835938 " fill-opacity="1" fill-rule="nonzero"/><path fill="rgb(34.899902%, 34.118652%, 34.118652%)" d="M 320.578125 241.207031 C 322.832031 241.207031 322.835938 237.699219 320.578125 237.699219 C 318.324219 237.699219 318.320312 241.207031 320.578125 241.207031 " fill-opacity="1" fill-rule="nonzero"/><path fill="rgb(34.899902%, 34.118652%, 34.118652%)" d="M 202.714844 98.976562 C 203.949219 100.53125 205.410156 102.957031 205.503906 106.648438 C 205.554688 108.480469 205.335938 110.589844 204.605469 112.820312 C 204.238281 113.929688 203.75 115.074219 203.058594 116.148438 C 202.390625 117.203125 201.441406 118.203125 200.328125 119.152344 C 198.101562 121.027344 195.628906 122.164062 193.308594 122.765625 C 190.976562 123.378906 188.789062 123.445312 186.875 123.222656 C 183.015625 122.714844 180.292969 121.195312 178.445312 119.925781 C 176.597656 118.601562 175.53125 117.464844 174.898438 116.746094 C 174.265625 116.011719 174.003906 115.707031 174.003906 115.707031 C 174.003906 115.707031 174.140625 116.074219 174.625 116.921875 C 175.109375 117.765625 175.984375 119.097656 177.753906 120.695312 C 179.527344 122.234375 182.269531 124.136719 186.472656 124.917969 C 188.5625 125.292969 190.992188 125.316406 193.589844 124.730469 C 196.175781 124.148438 198.949219 122.957031 201.46875 120.886719 C 202.640625 119.910156 203.652344 118.886719 204.476562 117.691406 C 205.277344 116.511719 205.835938 115.300781 206.25 114.113281 C 207.058594 111.738281 207.3125 109.492188 207.269531 107.488281 C 207.195312 105.488281 206.820312 103.714844 206.183594 102.261719 C 205.546875 100.820312 204.75 99.710938 203.980469 98.859375 C 202.417969 97.152344 201.011719 96.425781 200.152344 96.011719 C 199.277344 95.617188 198.894531 95.53125 198.894531 95.53125 C 198.894531 95.53125 199.125 95.703125 199.761719 96.160156 C 200.386719 96.640625 201.453125 97.410156 202.714844 98.976562 " fill-opacity="1" fill-rule="nonzero"/><path fill="rgb(34.899902%, 34.118652%, 34.118652%)" d="M 188.203125 156.09375 C 188.816406 155.355469 189.3125 154.476562 188.90625 153.507812 C 188.535156 152.628906 187.542969 152.269531 186.644531 152.324219 C 185.101562 152.417969 184.003906 153.894531 184.632812 155.382812 C 185.1875 156.695312 187.1875 157.320312 188.203125 156.09375 " fill-opacity="1" fill-rule="nonzero"/><path fill="rgb(34.899902%, 34.118652%, 34.118652%)" d="M 200.304688 152.636719 C 200.988281 153.300781 202.296875 153.425781 202.964844 152.636719 C 203.089844 152.488281 203.386719 152.28125 203.546875 152.082031 C 204.089844 151.414062 204.074219 150.453125 203.277344 149.972656 C 203.160156 149.902344 202.484375 149.617188 202.582031 149.675781 C 201.75 149.195312 200.457031 149.429688 200.003906 150.351562 C 199.71875 150.933594 199.605469 151.433594 199.867188 152.039062 C 199.964844 152.265625 200.121094 152.460938 200.304688 152.636719 " fill-opacity="1" fill-rule="nonzero"/><path fill="rgb(34.899902%, 34.118652%, 34.118652%)" d="M 213.949219 152.574219 C 214.5625 152.574219 215.046875 152.460938 215.609375 152.226562 C 217.019531 151.644531 217.023438 149.921875 215.609375 149.335938 C 215.039062 149.105469 214.574219 148.988281 213.949219 148.988281 C 212.984375 148.988281 212.160156 149.816406 212.160156 150.785156 C 212.160156 151.757812 212.980469 152.574219 213.949219 152.574219 " fill-opacity="1" fill-rule="nonzero"/><g clip-path="url(#clip-0)"><path fill="rgb(34.899902%, 34.118652%, 34.118652%)" d="M 131.25 302.484375 C 46.875 293.609375 7.3125 257.550781 15.085938 236.285156 C 18.359375 227.164062 38.113281 214.523438 47.773438 209.71875 C 48.085938 212.125 48.644531 214.460938 49.429688 216.714844 C 44.695312 222.75 41.566406 230.28125 41.378906 237.839844 C 41.300781 237.945312 41.238281 238.070312 41.21875 238.226562 C 38.691406 259.164062 63.507812 274.777344 79.980469 281.96875 C 102.011719 291.589844 126.578125 296.4375 150.398438 298.777344 C 177.8125 301.472656 206.0625 300.203125 233.410156 297.117188 C 259.394531 294.183594 284.5625 287.460938 308.011719 275.746094 C 321.636719 268.941406 342.515625 256.074219 338.628906 238.503906 C 338.832031 232.058594 336.929688 225.617188 333.550781 220.15625 C 332.101562 217.808594 329.050781 215.300781 331.9375 212.710938 C 335.820312 209.246094 346.394531 218.488281 349.339844 220.941406 C 354.917969 225.589844 360.121094 231.523438 361.679688 238.816406 C 361.941406 240.039062 362.074219 241.273438 362.105469 242.511719 C 361.234375 279.457031 263.898438 316.441406 131.25 302.484375 Z M 88.09375 300.476562 C 110.777344 306.78125 139.246094 311.117188 174.71875 311.175781 C 204.804688 312.453125 232.734375 309.597656 261.097656 304.019531 C 264.242188 303.53125 267.410156 303.023438 270.632812 302.476562 C 271.460938 302.417969 276.519531 302.027344 284.214844 300.476562 C 243.015625 320.707031 138.207031 326.578125 88.09375 300.476562 Z M 331.742188 248.554688 C 329.839844 252.144531 327.464844 255.320312 324.582031 258.191406 C 317.921875 264.808594 309.433594 269.484375 300.925781 273.277344 C 282.175781 281.625 261.6875 286.230469 241.472656 289.316406 C 235.699219 290.199219 229.898438 290.941406 224.085938 291.457031 C 198.75 293.710938 173.117188 293.425781 147.832031 290.679688 C 126.808594 288.390625 105.15625 284.703125 85.53125 276.507812 C 75.054688 272.132812 64.019531 266.398438 55.367188 259 C 50.578125 254.90625 46.382812 249.820312 44.902344 243.5625 C 43.761719 238.769531 44.386719 234.238281 45.785156 229.859375 C 46.53125 228.660156 47.160156 227.398438 47.84375 226.160156 C 45.875 232.351562 47.734375 241.25 51.910156 246.59375 C 58.527344 255.058594 69.496094 255.632812 78.550781 260.515625 C 90.40625 266.90625 99.125 275.679688 112.925781 277.683594 C 126.15625 279.605469 140.175781 280.230469 153.5 281.472656 C 167.066406 282.742188 180.078125 281.4375 193.652344 281.976562 C 205.621094 282.453125 218.4375 283.847656 229.996094 279.847656 C 236.070312 277.746094 241.386719 273.894531 247.601562 272.140625 C 254.863281 270.085938 263.601562 271.582031 271.042969 271.386719 C 283.988281 271.050781 292.675781 264.699219 303.644531 258.367188 C 315.578125 251.46875 331.265625 246.046875 334.023438 230.734375 C 333.707031 232.488281 333.640625 234.136719 333.640625 235.738281 C 333.648438 240.042969 334.167969 243.984375 331.742188 248.554688 Z M 51.875 222.214844 C 53 224.296875 54.304688 226.285156 55.796875 228.160156 C 67.554688 242.921875 88.226562 251.324219 94.78125 253.847656 C 94.40625 258.953125 96.542969 264.136719 101.613281 266.617188 C 107.628906 269.558594 114.988281 266.160156 116.109375 260.375 C 129.992188 263.6875 144.277344 265.519531 158.125 266.550781 C 192.46875 269.109375 227.308594 265.066406 260.382812 255.421875 C 268.890625 253.445312 277.300781 250.941406 285.660156 247.777344 C 301.445312 241.804688 317.878906 233.152344 328.039062 219.171875 C 331.640625 221.34375 334.042969 235.308594 319.726562 244.363281 C 309.957031 250.550781 299.792969 256.601562 289.625 262.121094 C 278.160156 268.34375 267.046875 266.804688 254.609375 267.773438 C 244.3125 268.574219 236.820312 274.503906 227.144531 277.117188 C 216.988281 279.855469 206.058594 278.25 195.726562 277.683594 C 185.0625 277.097656 174.40625 277.734375 163.730469 277.144531 C 152.394531 276.511719 141.066406 275.730469 129.703125 275.996094 C 117.074219 276.289062 105.605469 274.457031 95.03125 267.125 C 85.6875 260.644531 76.464844 255.855469 66.109375 251.257812 C 53.953125 245.867188 45.25 235.378906 51.875 222.214844 Z M 52.640625 193.503906 C 52.804688 193.527344 52.96875 193.523438 53.128906 193.519531 C 52.503906 196.589844 53.046875 200.15625 53.625 202.996094 C 56.859375 218.769531 70.027344 213.890625 77.015625 221.417969 C 79.664062 224.269531 81.363281 227.441406 84.449219 229.894531 C 88.769531 233.339844 95.539062 236.140625 101.199219 234.84375 C 100.621094 238.03125 99.75 241.222656 98.792969 244.585938 C 97.988281 245.429688 97.300781 246.363281 96.734375 247.371094 C 95.578125 247.101562 94.425781 246.828125 93.273438 246.578125 C 89.113281 244.652344 84.375 243.433594 80.40625 241.546875 C 73.839844 238.425781 54.464844 228.816406 51.347656 209.496094 C 50.175781 202.207031 51.585938 196.910156 52.640625 193.503906 Z M 44.425781 157.160156 C 47.496094 169.070312 64.785156 176.875 70.800781 181.882812 C 74.152344 184.667969 80.117188 192.625 94.820312 193.289062 C 94.386719 199.117188 95.460938 201.945312 97.632812 208.207031 C 87.261719 203.289062 68.769531 201.300781 54.839844 185.996094 C 47.65625 178.097656 43.394531 168.027344 44.425781 157.160156 Z M 50.324219 141.679688 C 50.367188 141.78125 50.417969 141.886719 50.46875 142.003906 C 50.460938 142.027344 50.476562 142.035156 50.492188 142.035156 C 50.875 142.804688 51.296875 143.546875 51.726562 144.285156 C 53.707031 151.921875 58.816406 156.574219 65.816406 161.40625 C 73.070312 166.410156 81.148438 170.191406 89.402344 173.199219 C 91.546875 173.976562 93.707031 174.667969 95.882812 175.316406 C 96.199219 177.816406 96.28125 180.351562 96.070312 182.898438 C 95.855469 185.445312 95.457031 187.824219 95.152344 190.160156 C 90.542969 188.636719 85.734375 187.957031 81.589844 184.992188 C 77.410156 182 74.464844 177.789062 70.035156 175.042969 C 59.1875 168.316406 35.585938 157.515625 50.324219 141.679688 Z M 49.632812 125.632812 C 50.035156 126.390625 61.863281 134.464844 68.492188 139.792969 C 71.015625 141.820312 73.238281 144.214844 75.835938 146.160156 C 78.097656 147.851562 81.941406 147.78125 84.238281 148.730469 C 86.082031 153.496094 88.960938 157.480469 91.535156 162.050781 C 92.585938 163.910156 93.4375 165.847656 94.136719 167.832031 C 82.113281 162.878906 69.898438 159.300781 60.394531 149.644531 C 53.378906 142.527344 49.742188 133.476562 49.632812 125.632812 Z M 66.859375 95.765625 C 79.609375 89.273438 94.292969 86.027344 108.234375 83.300781 C 116.136719 81.753906 124.097656 80.066406 132.085938 79.109375 C 134.136719 78.871094 136.234375 78.785156 138.351562 78.734375 C 138.308594 78.789062 138.269531 78.847656 138.238281 78.914062 C 136.066406 78.433594 133.265625 79.925781 133.320312 82.722656 C 132.316406 81.894531 130.625 82.113281 129.457031 82.925781 C 128.59375 83.542969 128.160156 84.296875 127.945312 84.910156 C 127.734375 85.535156 127.734375 86.046875 127.789062 86.40625 C 127.832031 86.6875 127.90625 86.867188 127.976562 87.007812 C 127.664062 87.109375 127.320312 87.265625 126.949219 87.539062 C 126.382812 87.964844 125.757812 88.664062 125.417969 89.738281 C 124.890625 91.605469 125.46875 92.828125 125.921875 93.445312 C 125.761719 93.515625 125.589844 93.601562 125.390625 93.726562 C 124.484375 94.296875 123.175781 95.964844 123.210938 98.742188 C 95.59375 101.417969 76.503906 118.230469 83.101562 145.210938 C 76.871094 142.34375 74.820312 135.996094 61.757812 130.789062 C 46.9375 124.878906 46.121094 106.332031 66.859375 95.765625 Z M 139.648438 81.4375 C 139.75 81.4375 139.847656 81.425781 139.9375 81.410156 C 139.925781 81.484375 139.9375 81.484375 139.925781 81.5625 C 140.066406 81.503906 139.894531 81.605469 140.421875 81.359375 C 140.480469 81.386719 140.523438 81.40625 140.523438 81.40625 C 140.511719 81.40625 140.527344 81.367188 140.535156 81.304688 C 141.554688 80.832031 142.375 80.527344 143.128906 80.375 C 143.648438 80.554688 144.179688 80.675781 144.734375 80.726562 C 144.976562 80.75 145.167969 80.605469 145.265625 80.40625 C 146.027344 80.589844 146.832031 80.953125 147.832031 81.523438 C 147.691406 81.703125 147.582031 81.847656 147.519531 81.972656 C 147.398438 81.957031 147.289062 81.925781 147.160156 81.921875 C 145.933594 81.878906 145.011719 82.3125 144.410156 82.757812 C 142.878906 83.882812 143.082031 85.035156 143.035156 85.164062 C 148.488281 81.964844 149.980469 85.195312 150.761719 85.335938 C 150.761719 85.335938 150.800781 85.269531 150.824219 85.113281 C 150.851562 84.953125 150.855469 84.695312 150.730469 84.320312 C 150.601562 83.957031 150.347656 83.457031 149.792969 82.96875 C 149.429688 82.644531 148.898438 82.316406 148.226562 82.113281 C 149.40625 82.472656 151.261719 81.367188 152.734375 81.789062 C 154.566406 82.316406 155.265625 83.351562 156.050781 84.976562 C 157.5 84.707031 159.820312 84.476562 161.203125 85.070312 C 161.613281 85.246094 164.519531 88.222656 164.109375 88.375 C 162.515625 88.976562 162.617188 89.742188 162.570312 89.851562 C 162.613281 89.851562 162.6875 89.855469 162.820312 89.84375 C 163.019531 89.832031 163.300781 89.8125 163.652344 89.796875 C 166.269531 89.742188 167.695312 90.847656 167.949219 93.484375 C 167.976562 93.839844 167.976562 94.113281 167.972656 94.289062 C 167.972656 94.46875 167.984375 94.5625 167.984375 94.5625 C 167.972656 94.546875 168.125 94.574219 168.367188 94.414062 C 169.378906 95.03125 169.921875 95.121094 170.617188 95.691406 C 168.421875 98.644531 166.941406 102.074219 166.480469 105.640625 C 166.378906 105.726562 166.273438 105.820312 166.148438 105.949219 C 165.71875 106.335938 165.222656 107.042969 164.136719 107.726562 C 163.925781 107.84375 163.722656 107.925781 163.523438 108.003906 C 163.195312 107.996094 162.828125 107.980469 162.371094 107.898438 C 161.765625 107.796875 161.007812 107.59375 160.304688 107.042969 C 158.378906 105.539062 158.761719 102.515625 158.714844 102.300781 C 158.84375 102.390625 157.125 102.851562 157.296875 105.402344 C 157.359375 106.332031 157.746094 107.597656 158.941406 108.585938 C 159.761719 109.246094 160.605469 109.511719 161.34375 109.601562 C 161.835938 109.90625 162.339844 110.027344 162.882812 110.0625 C 161.878906 110.988281 160.871094 113.042969 157.992188 113.589844 C 154.304688 112.941406 152.5 110.230469 153.816406 106.664062 C 154.199219 105.722656 154.453125 105.351562 154.425781 105.339844 C 154.519531 105.46875 152.484375 105.367188 151.699219 108.234375 C 151.484375 109.019531 151.398438 110.082031 151.769531 111.214844 C 149.832031 110.0625 146.394531 111.902344 146.242188 114.65625 C 146.015625 115.207031 145.902344 115.558594 145.910156 116.230469 C 144.699219 116.160156 142.164062 116.636719 140.074219 115.113281 C 138.039062 113.554688 138.226562 111.605469 138.40625 110.628906 C 138.511719 110.207031 138.613281 109.90625 138.707031 109.683594 C 142.644531 107.507812 143.589844 109.9375 144.765625 110.375 C 145.535156 110.753906 146.328125 110.890625 146.960938 110.835938 C 148.117188 110.757812 148.894531 110.304688 149.375 109.90625 C 150.320312 109.0625 150.273438 108.519531 150.304688 108.546875 C 150.289062 108.519531 149.925781 108.664062 149.019531 108.925781 C 148.5625 109.035156 147.953125 109.167969 147.1875 109.097656 C 146.433594 109.027344 145.550781 108.746094 144.785156 107.816406 C 142.398438 104.800781 146.027344 102.207031 145.898438 102.105469 C 145.902344 102.117188 145.878906 102.105469 145.851562 102.097656 C 146.539062 101.820312 147.167969 101.414062 147.636719 100.832031 C 148.363281 104.949219 154.128906 106.847656 156.554688 103.132812 C 154.722656 103.351562 154.246094 103.40625 153.515625 103.351562 C 152.777344 103.285156 151.890625 103.101562 150.949219 102.425781 C 149.054688 100.988281 149 99.269531 149.195312 98.417969 C 149.414062 97.53125 149.84375 97.246094 149.800781 97.222656 C 149.800781 97.222656 149.699219 97.191406 149.433594 97.21875 C 149.183594 97.257812 148.726562 97.398438 148.292969 97.914062 C 147.886719 98.390625 147.542969 99.199219 147.566406 100.261719 C 147.363281 100.292969 147.101562 100.347656 146.730469 100.421875 C 145.128906 100.722656 143.699219 100.84375 142.308594 99.863281 C 140.433594 98.46875 140.875 96.644531 141.21875 95.800781 C 141.632812 94.917969 142.003906 94.617188 141.972656 94.597656 C 142.054688 94.726562 139.582031 94.417969 139.195312 97.527344 C 139.117188 98.027344 139.179688 98.617188 139.375 99.210938 C 137.984375 98.765625 136.390625 99.042969 135.121094 100.25 C 132.457031 100.285156 130.304688 98.734375 131.128906 96.160156 C 135.351562 93.085938 136.210938 95.066406 137.179688 94.980469 C 137.179688 94.980469 137.21875 94.914062 137.234375 94.753906 C 137.25 94.601562 137.238281 94.355469 137.089844 94.027344 C 136.9375 93.707031 136.640625 93.28125 136.066406 92.933594 C 135.503906 92.589844 134.625 92.285156 133.511719 92.503906 C 132.625 92.691406 132.003906 93.121094 131.582031 93.566406 C 129.25 94.390625 127.960938 97.761719 129.914062 100.109375 C 128.851562 100.015625 127.589844 100.628906 126.871094 101.75 C 126.667969 101.632812 126.464844 101.496094 126.257812 101.316406 C 126.011719 101.097656 125.78125 100.828125 125.609375 100.507812 C 125.445312 100.203125 125.328125 99.765625 125.273438 99.183594 C 125.195312 98.171875 125.257812 97.332031 125.390625 96.625 C 126.914062 95.773438 127.976562 94.148438 128.097656 94.027344 C 127.972656 93.945312 127.859375 93.507812 127.03125 93.46875 C 127.234375 90.707031 127.019531 90.191406 128.921875 87.808594 C 129.363281 87.3125 129.550781 87.042969 129.550781 87.042969 C 129.550781 87.042969 129.476562 86.992188 129.300781 86.9375 C 129.148438 86.894531 128.90625 86.859375 128.582031 86.890625 C 128.648438 86.804688 128.722656 86.714844 128.800781 86.605469 C 130.714844 84.296875 130.632812 84.359375 133.433594 83.453125 C 133.617188 84.078125 133.867188 84.242188 133.84375 84.25 C 133.988281 84.109375 134.847656 80.101562 138.214844 80.5625 C 138.453125 81.058594 138.925781 81.4375 139.648438 81.4375 Z M 134.195312 57.375 C 133.894531 52.902344 136.3125 47.375 133.390625 43.523438 C 139.425781 46.367188 146.476562 46.378906 152.710938 49.101562 C 159.148438 51.914062 164.082031 56.242188 169.640625 60.332031 C 169.539062 60.75 169.550781 60.832031 169.539062 61.105469 C 166.179688 60.238281 162.480469 62.996094 161.5625 65.644531 C 160.40625 61.027344 159.394531 59.460938 159.347656 59.332031 C 159.378906 59.628906 159.011719 59.941406 160.730469 68.144531 C 160.867188 68.808594 160.992188 69.410156 161.113281 69.972656 C 159.5 68.355469 157.613281 66.503906 155.382812 64.371094 C 155.320312 64.3125 155.269531 64.261719 155.207031 64.199219 C 155.183594 64.113281 155.171875 64.035156 155.148438 63.945312 C 153.648438 57.746094 152.257812 55.738281 152.207031 55.609375 C 152.222656 55.738281 151.996094 56.554688 153.386719 62.464844 C 151.496094 60.675781 149.816406 59.113281 148.328125 57.746094 C 146.285156 50.597656 145.4375 49.671875 145.386719 49.542969 C 145.394531 49.664062 144.949219 51.246094 146.367188 55.960938 C 140.082031 50.300781 137.949219 48.898438 137.949219 48.898438 C 137.949219 48.898438 139.050781 50.65625 143.5625 55.457031 C 137.945312 54.480469 135.570312 54.808594 135.445312 54.808594 C 136.640625 55.121094 134.171875 54.835938 145.175781 57.15625 C 146.953125 58.996094 149.140625 61.195312 151.84375 63.8125 C 151.6875 63.808594 151.542969 63.804688 151.375 63.800781 C 151.1875 63.792969 142.164062 63.34375 141.964844 63.332031 C 142.09375 63.371094 144.644531 64.929688 151.246094 65.171875 C 151.980469 65.195312 152.640625 65.195312 153.261719 65.183594 C 153.457031 65.371094 153.628906 65.542969 153.832031 65.734375 C 154.765625 66.625 155.644531 67.460938 156.488281 68.253906 C 156.332031 68.28125 156.195312 68.3125 156.042969 68.339844 C 152.15625 69.058594 149.664062 69.234375 148.167969 69.421875 C 146.667969 69.589844 146.152344 69.703125 146.152344 69.703125 C 146.277344 69.722656 149.496094 70.933594 156.207031 69.703125 C 156.738281 69.605469 157.226562 69.496094 157.695312 69.390625 C 159.070312 70.667969 160.3125 71.808594 161.421875 72.820312 C 161.734375 74.199219 162.554688 74.640625 163.316406 75.433594 C 162.765625 75.5 162.179688 75.566406 161.535156 75.640625 C 159.480469 75.867188 166.53125 75.113281 152.449219 76.617188 C 152.574219 76.632812 155.15625 77.707031 161.601562 77.015625 C 162.527344 76.90625 163.347656 76.785156 164.078125 76.660156 C 164.074219 76.667969 164.066406 76.671875 164.0625 76.679688 C 163.347656 78.820312 164.511719 80.621094 166.21875 81.699219 C 161.703125 81.949219 161.019531 82.546875 160.847656 82.566406 C 160.972656 82.574219 162.007812 83.285156 166.644531 83.046875 C 166.554688 84.449219 167.15625 85.632812 168.175781 86.980469 C 167.742188 86.898438 167.304688 86.84375 166.863281 86.816406 C 166.085938 86.761719 165.589844 87.453125 165.59375 88.148438 C 165.335938 88.136719 165.074219 88.152344 164.804688 88.195312 C 165.1875 85.410156 162.183594 82.347656 158.609375 82.957031 C 157.753906 83.101562 157.160156 83.40625 156.742188 83.683594 C 156.742188 83.679688 156.742188 83.679688 156.742188 83.667969 C 156.65625 83.226562 156.457031 82.605469 155.925781 81.917969 C 154.015625 79.445312 150.335938 79.199219 148.226562 81.101562 C 147.910156 79.882812 146.4375 78.589844 144.398438 78.507812 C 143.828125 77.769531 143.199219 77.078125 142.535156 76.410156 C 138.453125 70.464844 134.730469 65.25 134.195312 57.375 Z M 164.871094 72.414062 C 165.210938 72.636719 165.53125 72.789062 165.828125 72.890625 C 165.921875 75.367188 167.96875 77.113281 169.839844 77.101562 C 169.296875 77.894531 169.023438 78.851562 169.140625 79.851562 C 168.707031 79.148438 165.367188 79.253906 163.515625 70.847656 C 163.886719 71.566406 164.402344 72.082031 164.871094 72.414062 Z M 172.539062 84.128906 C 172.117188 84.867188 171.804688 85.917969 172.078125 87.136719 C 171.917969 86.976562 171.757812 86.816406 171.613281 86.65625 C 171.445312 86.46875 171.601562 86.109375 171.398438 85.914062 C 168.183594 82.765625 168.753906 83.058594 169.25 80.476562 C 169.886719 82.945312 172.414062 84.019531 172.539062 84.128906 Z M 174.359375 84.460938 C 176.957031 84.46875 179.191406 82.695312 179.664062 80.523438 C 179.898438 81.507812 180.40625 82.425781 181.195312 83.125 C 182.121094 84.730469 181.5 86.9375 179.628906 88.355469 C 179.015625 88.632812 178.417969 88.945312 177.835938 89.277344 C 177.710938 89.324219 177.601562 89.382812 177.472656 89.421875 C 174.160156 88.5 173.445312 86.472656 174.359375 84.460938 Z M 188.128906 88.929688 C 191.910156 88.898438 195.902344 89.707031 199.371094 91.328125 C 200.425781 91.90625 201.453125 92.472656 202.4375 93.082031 C 203.53125 93.84375 204.53125 94.707031 205.390625 95.667969 C 209.828125 100.621094 210.527344 108.019531 209.167969 114.316406 C 209.035156 114.386719 208.921875 114.507812 208.859375 114.691406 C 208.292969 116.449219 207.429688 118.054688 206.359375 119.503906 C 205.304688 120.617188 204.136719 121.59375 203.125 122.773438 C 200.550781 124.332031 198.238281 126.019531 195.164062 127.011719 C 192.890625 127.679688 190.527344 128.015625 188.191406 127.984375 C 187.808594 127.972656 187.421875 127.964844 187.035156 127.925781 C 186.980469 127.921875 186.929688 127.917969 186.875 127.914062 C 184.195312 127.625 181.59375 126.761719 179.210938 125.257812 C 177.578125 124.230469 175.863281 122.835938 174.304688 121.265625 C 174.292969 121.238281 174.273438 121.210938 174.261719 121.183594 C 174.25 121.1875 174.238281 121.1875 174.226562 121.1875 C 173.839844 120.792969 173.472656 120.394531 173.109375 119.984375 C 172.878906 119.628906 172.660156 119.265625 172.453125 118.894531 C 172.472656 118.746094 172.46875 118.589844 172.410156 118.4375 C 169.699219 111.042969 169.535156 103.605469 174.496094 97.109375 C 177.949219 92.574219 182.714844 89.753906 188.128906 88.929688 Z M 183.296875 84.242188 C 184.742188 84.601562 186.367188 84.371094 187.847656 83.410156 C 187.644531 84.414062 187.976562 85.574219 188.605469 86.363281 C 188.546875 86.363281 188.488281 86.371094 188.421875 86.398438 C 188.347656 86.429688 188.269531 86.445312 188.199219 86.472656 C 186.621094 86.46875 185.078125 86.65625 183.578125 87.003906 C 183.449219 86.96875 183.328125 86.929688 183.175781 86.882812 C 183.546875 85.75 183.492188 84.964844 183.296875 84.242188 Z M 189.542969 81.75 C 190.277344 83.171875 191.617188 84.269531 193.210938 84.535156 C 194.226562 84.726562 195.179688 84.4375 195.878906 84.082031 C 196.59375 83.695312 197.058594 83.21875 197.472656 82.757812 C 197.75 82.394531 197.933594 82.050781 198.082031 81.714844 C 198.261719 81.863281 198.464844 82.015625 198.722656 82.152344 C 199.339844 82.484375 200.296875 82.726562 201.382812 82.519531 C 201.359375 82.664062 201.332031 82.828125 201.296875 83.035156 C 201.238281 83.394531 201.179688 83.851562 201.023438 84.421875 C 200.867188 84.984375 200.625 85.683594 200.089844 86.363281 C 199.5625 87.039062 198.894531 87.4375 198.320312 87.691406 C 197.742188 87.949219 197.238281 88.066406 196.847656 88.148438 C 196.484375 88.207031 196.214844 88.257812 196.019531 88.292969 C 195.882812 88.25 195.753906 88.210938 195.617188 88.175781 C 196.035156 87.867188 196.320312 87.554688 196.511719 87.28125 C 196.761719 86.90625 196.863281 86.625 196.902344 86.433594 C 196.949219 86.242188 196.945312 86.15625 196.945312 86.15625 C 196.945312 86.15625 196.859375 86.152344 196.6875 86.1875 C 196.523438 86.226562 196.277344 86.300781 195.941406 86.40625 C 195.28125 86.585938 194.25 87.101562 192.574219 86.96875 C 192.5 86.960938 192.445312 86.933594 192.375 86.921875 C 192.371094 86.917969 192.363281 86.914062 192.359375 86.910156 C 192.332031 86.90625 192.3125 86.90625 192.292969 86.902344 C 190.929688 86.636719 190.074219 85.953125 189.527344 85.492188 C 189.058594 84.226562 189.035156 83.789062 188.898438 82.558594 C 189.054688 82.390625 189.402344 81.964844 189.542969 81.75 Z M 204.199219 80.070312 C 204.796875 80.535156 205.992188 80.726562 207.296875 80.125 C 207.292969 80.167969 207.285156 80.210938 207.273438 80.253906 C 206.765625 80.835938 206.390625 81.605469 205.4375 82.640625 C 204.492188 83.59375 203.601562 83.984375 203.0625 84.296875 C 203 84.328125 202.957031 84.355469 202.902344 84.382812 C 202.832031 84.367188 202.761719 84.359375 202.695312 84.367188 C 202.644531 83.765625 202.5 83.28125 202.332031 82.949219 C 202.207031 82.695312 202.082031 82.523438 201.964844 82.386719 C 203.003906 82.039062 203.914062 81.226562 204.199219 80.070312 Z M 207.625 84.96875 C 208.371094 84.058594 208.90625 82.917969 209.074219 81.75 C 209.230469 80.671875 209.046875 79.921875 208.667969 79.117188 C 210.199219 77.460938 210.199219 74.855469 208.867188 73.535156 C 219.628906 71.96875 228.074219 75.636719 238.40625 77.484375 C 232.816406 84.023438 234.457031 94.265625 222.445312 103.675781 C 220.59375 104.632812 218.871094 105.824219 217.09375 107.011719 C 216.21875 107.597656 215.203125 108.171875 214.199219 108.800781 C 213.871094 108.964844 213.511719 109.132812 213.167969 109.292969 C 213.515625 105.929688 213.011719 102.394531 211.765625 99.210938 C 216.546875 100.152344 217.960938 100.035156 217.960938 100.035156 C 217.960938 100.035156 216.636719 99.085938 211.121094 97.726562 C 210.058594 95.53125 208.621094 93.578125 206.851562 92.058594 C 207.609375 91.773438 208.410156 91.464844 209.25 91.132812 L 209.253906 91.136719 C 209.253906 91.132812 209.25 91.132812 209.25 91.132812 C 209.289062 91.140625 210.238281 91.34375 223.566406 94.164062 C 223.417969 94.113281 220.570312 91.667969 211.414062 90.257812 C 214.8125 88.84375 217.953125 87.394531 220.734375 86 C 221.660156 86.125 217.179688 85.621094 231.097656 87.128906 C 230.972656 87.089844 228.9375 85.285156 222.839844 84.917969 C 228.746094 81.808594 230.84375 80.085938 230.96875 80.007812 C 230.507812 80.175781 230.644531 79.667969 220.757812 83.957031 C 223.238281 79.914062 223.210938 77.601562 223.242188 77.476562 C 222.597656 78.484375 223.609375 76.074219 218.703125 84.851562 C 211.453125 88.019531 215.421875 86.308594 207.78125 89.589844 C 212.21875 82.449219 212.882812 79.324219 212.960938 79.164062 C 208.203125 86.488281 216.632812 72.523438 205.597656 90.527344 C 205.417969 90.605469 205.25 90.675781 205.074219 90.753906 C 204.238281 90.234375 203.347656 89.800781 202.398438 89.476562 C 202.695312 89.164062 202.960938 88.808594 203.175781 88.429688 C 203.339844 88.132812 203.515625 87.734375 203.648438 87.304688 C 205.121094 87.203125 206.941406 85.804688 207.625 84.96875 Z M 265.433594 85.132812 C 273.601562 87.378906 281.65625 90.101562 289.527344 93.238281 C 351.363281 117.878906 283.40625 142.632812 283.28125 142.699219 C 278.316406 145.269531 273.449219 147.570312 268.378906 149.398438 C 272.621094 142.398438 278.394531 135.976562 278.667969 127.382812 C 279.296875 107.703125 254.050781 92.949219 240.574219 91.257812 C 239.765625 90.882812 238.808594 90.714844 238.003906 90.566406 C 236.96875 90.375 235.847656 90.050781 234.78125 90.101562 C 236.179688 86.859375 237.332031 83.496094 238.488281 80.160156 C 247.539062 81.679688 256.515625 82.6875 265.433594 85.132812 Z M 318.28125 124.734375 C 317.703125 136.421875 313.601562 144.25 307.257812 149.902344 C 293.609375 157.515625 279.179688 163.519531 264.085938 167.640625 C 264.003906 165.890625 263.867188 164.117188 263.921875 162.332031 C 264.011719 159.476562 264.71875 156.859375 265.769531 154.382812 C 269.246094 153.402344 272.640625 152.191406 275.878906 150.679688 C 280.867188 148.339844 285.480469 145.292969 290.542969 143.09375 C 295.011719 141.148438 299.699219 139.734375 304.054688 137.511719 C 306.777344 136.125 310.078125 133.648438 313.011719 130.628906 C 315.363281 129.203125 317.125 127.132812 318.28125 124.734375 Z M 320.597656 148.414062 C 320.847656 148.683594 321.070312 148.960938 321.273438 149.242188 C 325.761719 155.480469 318.914062 163.625 313.6875 166.871094 C 310.929688 168.585938 308.148438 170.28125 305.246094 171.75 C 298.722656 175.054688 291.621094 176.011719 284.996094 178.890625 C 279.171875 181.421875 274.316406 184.992188 268.035156 186.566406 C 261.792969 188.132812 255.359375 188.542969 249.027344 189.59375 C 235.796875 191.785156 224.097656 199.8125 210.488281 199.953125 C 198.414062 200.078125 185.132812 195.582031 173.28125 199.238281 C 172.957031 193.691406 171.652344 188.058594 170.695312 182.414062 C 182.609375 182.308594 194.53125 181.949219 206.394531 181.386719 C 220.46875 180.722656 234.582031 179.425781 248.460938 176.882812 C 249.429688 179.574219 251.28125 181.863281 254.042969 182.972656 C 259.957031 185.34375 265.742188 179.273438 264.398438 173.382812 C 274.796875 170.628906 284.996094 166.96875 294.503906 162.035156 C 301.492188 158.75 307.875 155.269531 312.671875 150.101562 C 314.816406 147.789062 317.652344 145.1875 320.597656 148.414062 Z M 324.6875 161.105469 C 325.058594 160.191406 325.222656 159.253906 325.230469 158.34375 C 325.34375 158.128906 325.457031 157.910156 325.5625 157.6875 C 328.457031 167.105469 320.492188 178.722656 313.933594 184.734375 C 312.109375 186.410156 310.179688 187.972656 308.167969 189.433594 C 304.203125 191.683594 299.890625 193.402344 295.761719 195.277344 C 284.578125 200.359375 273.3125 205.015625 261.558594 208.621094 C 254.46875 210.792969 247.289062 212.644531 240.058594 214.246094 C 227.171875 216.71875 214.109375 218.316406 200.996094 218.878906 C 194.726562 219.152344 188.449219 219.183594 182.179688 218.941406 C 177.246094 218.746094 172.628906 217.230469 167.71875 217.664062 C 174.015625 217.109375 173.375 206.3125 173.355469 201.5625 C 181.441406 200.851562 188.9375 201.277344 197.082031 202.246094 C 205.007812 203.195312 213.28125 204.882812 221.085938 202.890625 C 229.238281 200.8125 236.4375 195.691406 244.660156 193.828125 C 252.65625 192.019531 262.273438 191.996094 270.203125 189.863281 C 277.863281 187.804688 282.398438 182.390625 289.828125 179.925781 C 297.785156 177.289062 304.847656 176.480469 312.179688 172.214844 C 316.28125 169.828125 322.78125 165.882812 324.6875 161.105469 Z M 299.386719 217.046875 C 289.359375 222.453125 279.480469 227.585938 268.21875 229.828125 C 256.933594 232.074219 245.359375 232.261719 234.0625 234.5 C 222.605469 236.773438 211.597656 241.652344 199.804688 242.074219 C 189.136719 242.453125 178.792969 239.117188 168.253906 237.980469 C 162.738281 237.390625 157.289062 237.574219 151.828125 238.519531 C 149.539062 238.914062 147.273438 239.53125 144.964844 239.785156 C 133.496094 241.054688 125.691406 230.953125 113.996094 233.746094 C 114.878906 228.15625 116.488281 224.574219 116.558594 219.28125 C 142.339844 225.011719 170.535156 226.195312 195.902344 224.742188 C 220.695312 223.328125 243.925781 220.378906 267.503906 212.558594 C 271.679688 211.167969 275.769531 209.636719 279.804688 207.988281 C 281.988281 207.230469 284.160156 206.433594 286.3125 205.59375 C 293.683594 202.699219 301.722656 198.980469 308.820312 194.167969 C 310.625 193.101562 312.378906 191.921875 314.007812 190.546875 C 315.457031 189.328125 316.78125 187.976562 318.066406 186.578125 C 319.246094 185.386719 320.363281 184.152344 321.390625 182.851562 C 321.921875 182.257812 322.457031 181.667969 323 181.085938 C 339.574219 193.015625 317.363281 207.359375 299.386719 217.046875 Z M 112.5 197.628906 C 117.253906 200.148438 122.972656 200.703125 128.316406 200.761719 C 133.015625 200.816406 137.648438 200.226562 142.328125 200.890625 C 145.914062 201.40625 149.210938 202.898438 152.75 202.488281 C 151.839844 207.667969 151.597656 212.992188 153.273438 217.089844 C 140.769531 216.082031 128.324219 214.566406 115.824219 212.96875 C 114.972656 207.6875 113.460938 202.636719 112.5 197.628906 Z M 144.960938 182.195312 C 148.390625 182.292969 151.835938 182.347656 155.28125 182.386719 C 155.15625 187.144531 154.679688 191.835938 154.03125 196.558594 C 153.734375 197.734375 153.453125 198.945312 153.191406 200.183594 C 146.523438 194.15625 130.449219 201.941406 112.078125 195.121094 C 110.976562 187.367188 112.519531 183.613281 114.078125 179.480469 C 124.277344 181.160156 134.65625 181.914062 144.960938 182.195312 Z M 124.449219 156.84375 C 124.71875 156.671875 124.984375 156.5 125.273438 156.34375 C 130.882812 153.371094 137.695312 153.550781 143.816406 154.25 C 144.054688 154.277344 144.246094 154.210938 144.40625 154.105469 C 144.484375 154.144531 144.566406 154.175781 144.640625 154.210938 C 145.804688 154.808594 146.84375 155.507812 147.777344 156.28125 C 139.855469 155.441406 131.902344 155.183594 124.449219 156.84375 Z M 151.394531 160.492188 L 151.460938 160.5 C 153.484375 163.761719 154.523438 167.667969 154.933594 171.730469 C 155.078125 173.164062 155.175781 174.585938 155.238281 176 C 153.191406 175.917969 151.144531 175.835938 149.09375 175.730469 C 138.066406 175.152344 127.078125 173.578125 116.066406 173.011719 C 117.207031 168.371094 118.28125 163.402344 121.179688 159.769531 C 131.429688 159.398438 141.03125 159.347656 151.394531 160.492188 Z M 172.539062 159.367188 C 172.714844 159.164062 172.773438 158.859375 172.722656 158.582031 C 176.160156 153.558594 182.808594 151.027344 188.691406 149.023438 C 202.835938 144.199219 234.035156 144.148438 243.871094 153.699219 C 238.152344 153.777344 232.421875 153.484375 226.621094 153.488281 C 207.472656 153.492188 200.832031 161.667969 172.539062 159.367188 Z M 214.316406 157.945312 C 225.171875 155.683594 235.78125 157.863281 246.648438 157.433594 C 248.667969 161.378906 248.113281 164.988281 248.050781 169.0625 C 247.90625 169.664062 247.8125 170.285156 247.75 170.910156 C 222.476562 174.363281 195.042969 176.519531 169.851562 176.320312 C 169.445312 172.066406 169.472656 166.75 170.757812 162.675781 C 191.078125 164.535156 194.625 162.042969 214.316406 157.945312 Z M 137.828125 109.207031 C 137.753906 109.5 137.738281 109.726562 137.753906 109.878906 C 137.132812 110.507812 136.808594 111.367188 136.71875 112.234375 C 136.550781 112.269531 136.332031 112.335938 136.0625 112.445312 C 135.394531 112.429688 134.824219 112.378906 134.164062 112.152344 C 133.550781 111.945312 132.777344 111.5625 132.273438 110.796875 C 131.773438 110.039062 131.765625 109.132812 131.898438 108.445312 C 132.03125 107.742188 132.296875 107.21875 132.53125 106.832031 C 132.71875 106.550781 132.867188 106.355469 133 106.195312 C 133.148438 106.582031 133.347656 106.972656 133.621094 107.339844 C 134.519531 108.597656 136.058594 109.445312 137.828125 109.207031 Z M 152.964844 120.816406 C 151.976562 122.433594 151.683594 123.050781 150.269531 124.429688 C 148.761719 124.71875 147.394531 124.769531 145.992188 124.195312 C 141.921875 122.429688 143.773438 118.578125 143.648438 118.5625 C 143.679688 118.582031 143.324219 118.578125 142.84375 119.109375 C 142.765625 118.933594 142.671875 118.855469 142.671875 118.855469 C 140.964844 119.800781 140.570312 120.050781 139.835938 120.152344 C 137.386719 119.535156 134.078125 115.957031 136.679688 112.820312 C 136.683594 114.027344 137.316406 115.609375 138.761719 116.699219 C 140.121094 117.746094 141.585938 117.96875 142.644531 117.914062 C 143.726562 117.855469 144.488281 117.554688 145.019531 117.28125 C 145.46875 117.035156 145.757812 116.8125 145.941406 116.636719 C 146.28125 119.605469 149.527344 121.902344 152.964844 120.816406 Z M 153.113281 119.246094 C 149.101562 119.671875 146.96875 116.898438 148.007812 114.355469 C 149.792969 112.628906 150.867188 112.550781 152.101562 111.984375 C 152.378906 112.515625 154.300781 114.539062 156.121094 114.746094 C 155.34375 116.628906 155.132812 117.871094 153.113281 119.246094 Z M 169.4375 118.566406 C 169.921875 119.53125 170.488281 120.464844 171.121094 121.359375 C 167.371094 121.5625 163.933594 121.734375 160.789062 121.890625 C 161.027344 121.726562 161.265625 121.566406 161.488281 121.402344 C 162.5 120.675781 163.703125 119.792969 164.492188 118.707031 C 166.09375 118.667969 167.738281 118.625 169.4375 118.566406 Z M 157.285156 115.148438 C 160.835938 116.214844 164.121094 112.542969 163.289062 110.0625 C 163.832031 110.039062 164.4375 109.910156 165.066406 109.5625 C 165.628906 109.242188 166.027344 108.859375 166.324219 108.472656 C 166.339844 109.050781 166.375 109.632812 166.449219 110.21875 C 166.363281 109.90625 166.242188 109.695312 166.15625 109.574219 C 166.070312 109.445312 166.011719 109.398438 166.011719 109.398438 C 166.011719 109.398438 165.773438 109.574219 165.496094 110.003906 C 165.121094 111.777344 164.492188 114.648438 161.976562 114.554688 C 161.871094 114.652344 161.363281 115.125 161.28125 115.199219 C 161.417969 115.277344 161.460938 115.371094 161.878906 115.484375 C 161.769531 115.582031 161.640625 115.710938 161.496094 115.90625 C 159.683594 117.976562 160.039062 118.242188 157.167969 119.246094 C 156.5625 119.425781 156.269531 119.554688 156.269531 119.554688 C 156.371094 119.675781 156.359375 119.863281 156.945312 120.203125 C 156.632812 120.660156 156.359375 121.054688 156.074219 121.40625 C 155.800781 121.566406 155.527344 121.714844 155.265625 121.890625 C 155 122.0625 154.859375 122.339844 154.804688 122.636719 C 154.535156 122.828125 154.234375 123.007812 153.871094 123.1875 C 154.476562 121.988281 154.371094 121.257812 154.296875 120.539062 C 156.546875 119.683594 157.753906 117.175781 157.285156 115.148438 Z M 142.164062 106.808594 C 140.949219 106.554688 139.882812 106.847656 139.015625 107.515625 C 135.589844 108.003906 133.617188 104.925781 135.144531 102.191406 C 139.277344 99.894531 140.683594 101.835938 141.554688 101.828125 L 141.558594 101.816406 C 142.457031 102.335938 143.386719 102.488281 144.167969 102.464844 C 142.792969 103.265625 141.871094 104.902344 142.164062 106.808594 Z M 128.597656 102.429688 C 128.996094 101.621094 129.667969 101.054688 130.335938 100.539062 C 131.230469 101.34375 132.527344 101.808594 133.871094 101.601562 C 132.867188 102.652344 132.441406 104.160156 132.863281 105.746094 C 132.621094 105.761719 132.289062 105.835938 131.847656 106.0625 C 131.601562 106.199219 131.324219 106.398438 131.054688 106.675781 C 130.925781 106.640625 130.78125 106.609375 130.617188 106.5625 C 130.277344 106.464844 129.84375 106.320312 129.398438 106.003906 C 128.957031 105.691406 128.539062 105.238281 128.339844 104.394531 C 128.214844 103.753906 128.285156 103.210938 128.453125 102.75 C 128.679688 102.597656 128.738281 102.46875 128.746094 102.488281 C 128.746094 102.480469 128.6875 102.460938 128.597656 102.429688 Z M 101.65625 231.773438 C 96.144531 230.769531 91.238281 230.527344 86.59375 226.726562 C 82.574219 223.445312 80.445312 218.316406 75.933594 215.574219 C 69.339844 211.570312 55.4375 214.425781 55.921875 195.347656 C 59.730469 200.425781 66.21875 203.203125 72.0625 205.808594 C 81.1875 209.878906 90.609375 213.273438 100.195312 216.082031 C 100.628906 217.609375 101.019531 219.160156 101.3125 220.738281 C 102.039062 224.652344 102.0625 228.25 101.65625 231.773438 Z M 110.070312 241.835938 C 110.34375 245.476562 111.894531 248.796875 111.792969 252.628906 C 111.707031 255.484375 110.996094 259.144531 108.554688 261.039062 C 107.277344 262.023438 106.183594 262.570312 105.242188 262.789062 C 103.957031 262.519531 102.703125 261.910156 101.628906 260.882812 C 101.371094 260.640625 101.140625 260.382812 100.925781 260.125 C 100.0625 258.074219 99.882812 255.367188 100 253.699219 C 100.769531 242.570312 108.46875 236.195312 105.269531 219.648438 C 104.152344 213.863281 101.980469 208.449219 99.929688 202.960938 C 97.304688 195.929688 98.695312 190.195312 99.125 182.898438 C 99.789062 171.632812 95.101562 163.390625 89.800781 153.957031 C 82.042969 140.152344 83.382812 121.15625 96.75 111.453125 C 104.824219 105.597656 114.269531 103.355469 123.765625 101.234375 C 123.785156 101.269531 123.796875 101.304688 123.816406 101.335938 C 124.183594 101.941406 124.648438 102.347656 125.101562 102.617188 C 125.53125 102.878906 125.941406 103.015625 126.3125 103.089844 C 126.230469 103.484375 126.226562 103.921875 126.273438 104.367188 C 124.347656 104.554688 122.421875 104.753906 120.542969 104.988281 C 120.027344 105.050781 119.996094 105.777344 120.542969 105.816406 C 122.632812 105.949219 124.753906 106.042969 126.894531 106.113281 C 127.328125 106.777344 127.910156 107.265625 128.453125 107.472656 C 129.238281 107.792969 129.894531 107.757812 130.375 107.644531 C 130.339844 107.710938 130.296875 107.769531 130.265625 107.84375 C 130.175781 108.039062 130.097656 108.269531 130.03125 108.507812 C 129.96875 108.5 129.914062 108.484375 129.84375 108.496094 C 129.808594 108.503906 129.769531 108.511719 129.734375 108.519531 C 129.691406 108.535156 129.664062 108.566406 129.625 108.582031 C 126.414062 108.804688 124.121094 108.992188 122.582031 109.148438 C 120.6875 109.339844 119.917969 109.476562 119.917969 109.476562 C 119.917969 109.476562 120.660156 109.683594 122.527344 110.007812 C 123.96875 110.253906 126.09375 110.578125 129.0625 110.902344 C 129.273438 112.636719 130.355469 114.398438 131.898438 115.121094 C 130.351562 115.234375 128.921875 115.347656 127.636719 115.453125 C 118.5625 116.207031 115.507812 116.820312 115.507812 116.820312 C 115.507812 116.820312 118.515625 117.582031 127.53125 118.210938 C 128.9375 118.304688 130.519531 118.394531 132.246094 118.480469 C 132.683594 119.929688 134.109375 121.417969 135.046875 122.089844 C 135.601562 122.492188 136.277344 122.84375 137.003906 123.113281 C 134.535156 123.289062 132.761719 123.445312 131.558594 123.578125 C 130 123.75 129.371094 123.878906 129.371094 123.878906 C 129.371094 123.878906 129.972656 124.097656 131.488281 124.4375 C 133.003906 124.78125 135.4375 125.261719 139.101562 125.710938 C 141.078125 125.945312 143.421875 126.191406 146.167969 126.402344 C 146.777344 126.542969 147.421875 126.589844 148.074219 126.539062 C 154.960938 126.992188 164.167969 127.191406 176.273438 126.5625 C 176.460938 126.699219 176.644531 126.832031 176.835938 126.964844 C 174.515625 127.265625 172.667969 127.554688 171.246094 127.839844 C 167.96875 128.476562 166.839844 129.042969 166.839844 129.042969 C 166.839844 129.042969 167.902344 129.855469 171.1875 130.59375 C 174.464844 131.3125 180.019531 132.019531 188.808594 131.152344 C 197.035156 130.320312 202.128906 128.804688 205.148438 127.671875 C 208.167969 126.523438 209.140625 125.710938 209.140625 125.710938 C 209.140625 125.710938 208.238281 125.109375 205.222656 124.875 C 205.164062 124.871094 205.089844 124.867188 205.03125 124.863281 C 205.621094 124.386719 206.171875 123.878906 206.675781 123.34375 C 210.097656 122.769531 212.929688 122.199219 215.242188 121.699219 C 218.71875 120.945312 221.042969 120.296875 222.5 119.855469 C 223.960938 119.421875 224.550781 119.183594 224.550781 119.183594 C 224.550781 119.183594 224.097656 119.050781 222.808594 118.949219 C 221.519531 118.832031 219.402344 118.785156 216.066406 118.828125 C 214.25 118.847656 212.035156 118.929688 209.433594 119.054688 C 209.46875 118.949219 209.515625 118.847656 209.554688 118.738281 C 209.824219 118.277344 210.066406 117.785156 210.285156 117.261719 C 210.605469 116.824219 210.910156 116.371094 211.175781 115.898438 C 215.046875 115.5 218.339844 115.109375 221.03125 114.757812 C 229.664062 113.613281 232.675781 112.800781 232.675781 112.800781 C 232.675781 112.800781 230.5 112.175781 222.320312 111.933594 C 220.242188 111.859375 217.75 111.824219 214.828125 111.820312 C 216.261719 110.878906 217.632812 109.75 218.859375 108.90625 C 219.921875 108.175781 220.96875 107.460938 221.976562 106.703125 C 223.066406 106.507812 224.101562 106.324219 225.046875 106.148438 C 229.316406 105.34375 232.179688 104.65625 233.976562 104.199219 C 235.78125 103.738281 236.519531 103.492188 236.519531 103.492188 C 236.519531 103.492188 235.960938 103.367188 234.394531 103.28125 C 232.824219 103.183594 230.242188 103.164062 226.164062 103.253906 C 226.042969 103.257812 225.910156 103.261719 225.785156 103.265625 C 228.859375 100.34375 231.535156 96.824219 233.558594 92.785156 C 233.585938 95.734375 248.152344 94.585938 260.660156 102.796875 C 269.007812 108.277344 275.664062 117.738281 274.460938 128.089844 C 273.035156 140.367188 262.3125 148.328125 260.773438 161.179688 C 260.175781 166.179688 261.367188 172.753906 257.816406 176.308594 C 257.65625 176.375 257.5 176.476562 257.363281 176.621094 C 252.363281 181.792969 253.125 164.617188 253.164062 163.308594 C 253.78125 142.304688 223.898438 137.929688 203.1875 141.332031 C 192.265625 143.128906 178.984375 145.816406 171.050781 154.296875 C 163.824219 162.019531 165.019531 172.527344 166.949219 182.085938 C 167.992188 187.265625 169.308594 192.40625 169.945312 197.664062 C 170.605469 203.148438 170.464844 208.199219 167.050781 212.824219 C 164.332031 216.503906 160.40625 217.96875 157.644531 214.53125 C 157.546875 214.292969 157.453125 214.046875 157.382812 213.78125 C 156.773438 211.519531 156.996094 209.066406 157.160156 206.765625 C 157.378906 203.746094 157.628906 200.753906 157.804688 197.757812 C 157.828125 197.613281 157.859375 197.460938 157.878906 197.320312 C 159.292969 187.589844 159.449219 176.070312 157.167969 166.445312 C 154.375 154.671875 143.351562 147.378906 133.070312 149.785156 C 129.542969 149.960938 126.039062 150.890625 123.027344 152.503906 C 114.453125 157.078125 113.335938 166.8125 111.332031 175.402344 C 110.222656 180.179688 108.765625 184.601562 108.78125 189.574219 C 108.789062 191.351562 108.953125 193.113281 109.199219 194.863281 C 109.117188 195.042969 109.140625 195.242188 109.28125 195.429688 C 109.820312 198.957031 110.71875 202.4375 111.558594 205.90625 C 113.507812 213.917969 112.992188 221.945312 111.785156 230.019531 C 111.226562 233.75 109.78125 238.066406 110.070312 241.835938 Z M 331.269531 193.007812 C 332.292969 203.824219 326.546875 214.695312 318.472656 223.101562 C 309.910156 229.578125 301.710938 234.570312 291.769531 238.625 C 244.878906 257.742188 225.355469 256.460938 203.277344 258.28125 C 190.523438 259.335938 177.730469 260.28125 164.925781 259.75 C 148.761719 259.085938 130.671875 255.90625 115.222656 252.011719 C 115.34375 246.832031 113.527344 242.085938 113.714844 236.683594 C 121.503906 235.339844 128.605469 241.957031 136.289062 243.234375 C 146.523438 244.933594 156.894531 240.859375 167.125 241.949219 C 176.910156 242.984375 186.433594 246.519531 196.320312 246.59375 C 205.425781 246.664062 214.28125 242.988281 223.007812 240.675781 C 242.429688 235.519531 264.957031 238.070312 283.636719 230.207031 C 292.203125 226.601562 300.238281 221.175781 308.40625 216.761719 C 318.242188 211.4375 328.375 203.886719 331.269531 193.007812 Z M 365.371094 238.023438 C 364.257812 232.796875 361.515625 228.171875 358.132812 224.214844 C 354.34375 219.457031 349.0625 215.136719 342.460938 211.488281 C 338.9375 209.402344 336.355469 208.238281 336.03125 208.097656 L 335.949219 208.289062 C 335.3125 208.011719 334.664062 207.738281 334.007812 207.472656 C 338.398438 193.210938 332.46875 181.113281 325.195312 176.835938 C 328.828125 169.675781 331.96875 159.375 327.792969 153.640625 C 326.753906 148.554688 323.421875 144.234375 318.1875 141.753906 C 325.996094 124.703125 321.839844 107.5 301.164062 94.59375 C 293.320312 89.699219 284.027344 86.910156 275.179688 84.300781 C 263.886719 80.972656 250.785156 78.3125 238.832031 79.164062 C 239.027344 78.609375 239.222656 78.054688 239.421875 77.507812 C 239.65625 77.355469 239.753906 77.054688 239.667969 76.816406 C 239.824219 76.378906 239.550781 76.300781 239.320312 76.519531 C 239.3125 76.515625 239.308594 76.511719 239.304688 76.507812 C 231.4375 74.8125 219.714844 68.273438 211.160156 71.410156 C 211.382812 70.863281 211.507812 70.179688 211.335938 69.351562 C 211.046875 68.121094 210.265625 67.410156 209.632812 67.054688 C 208.976562 66.683594 208.398438 66.625 207.988281 66.652344 C 207.15625 66.730469 206.976562 67.058594 206.972656 67.039062 C 207.113281 67.457031 210.816406 68.78125 208.753906 72.625 C 208.5 72.792969 208.3125 72.851562 208.285156 73.105469 C 208.226562 73.082031 208.191406 73.070312 208.191406 73.070312 C 207.703125 73.921875 209.5 77.492188 204.273438 79.710938 C 204.5 77.84375 203.144531 77.601562 203.273438 77.519531 C 203.113281 77.488281 203.207031 81.921875 198.441406 80.277344 C 198.519531 78.964844 198.019531 78.421875 198.039062 78.417969 C 197.984375 78.398438 197.769531 79.164062 197.40625 79.910156 C 197.097656 79.8125 196.9375 79.769531 196.9375 79.769531 C 196.9375 79.769531 196.898438 80.011719 197.097656 80.46875 C 196.394531 81.597656 194.921875 82.730469 193.605469 82.511719 C 190.207031 82.039062 189.613281 77.117188 189.542969 76.992188 C 189.519531 77.117188 188.25 78.347656 189.207031 80.988281 C 189.074219 81.046875 188.945312 81.105469 188.78125 81.1875 C 188.324219 81.40625 187.722656 81.714844 186.921875 81.992188 C 186.136719 82.253906 185.066406 82.511719 183.902344 82.277344 C 182.734375 82.027344 181.980469 81.28125 181.488281 80.578125 C 181 79.855469 180.746094 79.175781 180.589844 78.648438 C 180.429688 78.121094 180.339844 77.734375 180.285156 77.488281 C 180.265625 77.414062 180.25 77.375 180.234375 77.328125 C 181.191406 77.242188 182.003906 76.90625 182.621094 76.511719 C 183.632812 75.839844 184.09375 75.027344 184.339844 74.425781 C 184.78125 73.171875 184.492188 72.695312 184.53125 72.707031 C 184.53125 72.707031 184.445312 72.765625 184.292969 72.9375 C 184.136719 73.097656 183.910156 73.375 183.554688 73.734375 C 183.199219 74.082031 182.699219 74.539062 181.957031 74.894531 C 181.246094 75.21875 180.128906 75.492188 178.917969 75.191406 C 177.726562 74.835938 177.296875 74.078125 177.257812 73.207031 C 177.1875 72.359375 177.449219 71.648438 177.675781 71.136719 C 177.914062 70.613281 178.144531 70.273438 178.28125 70.050781 C 178.429688 69.824219 178.480469 69.722656 178.480469 69.722656 C 178.507812 69.753906 177.9375 69.609375 176.867188 70.5 C 174.101562 73.027344 175.597656 77.554688 180.03125 77.335938 C 179.84375 77.636719 179.679688 78.003906 179.574219 78.644531 C 179.480469 78.363281 179.511719 78.382812 178.976562 77.632812 C 178.785156 77.964844 178.996094 81.160156 175.472656 82.21875 C 175.148438 82.214844 174.851562 82.261719 174.507812 82.390625 C 173.675781 82.441406 172.972656 82.246094 172.40625 81.917969 C 172.339844 81.855469 172.277344 81.804688 172.214844 81.730469 C 171.757812 81.253906 171.242188 80.535156 171.171875 79.605469 C 171.09375 78.679688 171.546875 77.871094 172.023438 77.332031 C 172.5 76.777344 173.007812 76.453125 173.410156 76.242188 C 174.242188 75.839844 174.671875 75.78125 174.664062 75.753906 C 174.660156 75.773438 172.699219 74.15625 170.382812 76.445312 C 169.144531 75.59375 167.953125 74.46875 167.882812 72.886719 C 167.878906 72.878906 167.882812 72.867188 167.882812 72.863281 C 167.945312 72.824219 167.984375 72.796875 167.984375 72.808594 C 167.984375 72.808594 167.949219 72.765625 167.894531 72.71875 C 167.953125 69.851562 171.351562 69.078125 171.304688 68.949219 C 171.300781 68.992188 171.035156 68.527344 169.851562 68.492188 C 169.277344 68.5 168.460938 68.667969 167.605469 69.296875 C 167.074219 69.6875 166.488281 70.328125 166.136719 71.203125 C 166.128906 71.199219 166.125 71.195312 166.117188 71.191406 C 163.300781 68.042969 166.957031 65.199219 166.988281 65.058594 C 166.992188 65.085938 166.636719 64.777344 165.632812 65.058594 C 165.148438 65.210938 164.507812 65.550781 163.925781 66.28125 C 163.671875 66.597656 163.429688 67.015625 163.253906 67.515625 C 163.320312 65.917969 164.378906 64.601562 165.605469 63.585938 C 168.753906 62.496094 170.25 62.988281 171.707031 62.839844 C 171.605469 62.714844 171.671875 62.019531 170.296875 61.375 C 174.628906 56.136719 178.539062 58.867188 179.171875 58.675781 C 179.171875 58.675781 179.179688 58.589844 179.121094 58.410156 C 180.921875 55.664062 182.253906 54.230469 185.699219 55.882812 C 185.65625 56.238281 185.675781 56.140625 185.75 56.660156 C 186.371094 56.453125 188.203125 53.378906 192.078125 54.996094 C 191.789062 55.566406 191.835938 55.699219 191.796875 55.828125 C 192.046875 55.695312 192.5 55.457031 192.792969 55.292969 C 192.851562 55.316406 192.886719 55.332031 192.886719 55.332031 C 192.886719 55.332031 192.894531 55.292969 192.90625 55.230469 C 195.824219 53.566406 198.652344 53.988281 200.960938 56.714844 C 200.074219 57.140625 200.035156 57.519531 199.910156 57.636719 C 202.695312 57.773438 204.472656 58.109375 205.742188 60.675781 C 204.773438 60.707031 204.578125 61.039062 204.457031 61.082031 C 204.457031 61.082031 204.707031 61.289062 205.242188 61.589844 C 209.199219 64.121094 208.238281 65.792969 208.804688 66.667969 C 208.890625 66.539062 209.785156 66.253906 209.757812 64.617188 C 209.742188 63.980469 209.5625 63.132812 208.921875 62.285156 C 208.277344 61.449219 207.5 61.039062 206.875 60.839844 C 206.855469 60.832031 206.835938 60.832031 206.808594 60.820312 C 207.214844 58.339844 204.511719 55.75 201.613281 56.492188 C 201.242188 52.835938 195.53125 50.832031 192.59375 54.234375 C 191.136719 51.996094 187.085938 52.296875 185.90625 55.09375 C 185.902344 55.085938 185.902344 55.074219 185.894531 55.066406 C 185.675781 54.71875 185.285156 54.265625 184.578125 53.917969 C 181.644531 52.46875 178.332031 55.035156 178.773438 57.792969 C 176.855469 55.363281 172.003906 55.699219 170.09375 59.195312 C 159.875 45.332031 141.984375 45.972656 133.402344 43.242188 C 133.285156 43.207031 133.207031 43.347656 133.257812 43.433594 C 133.253906 43.441406 133.242188 43.449219 133.242188 43.464844 C 134.742188 48.625 131.925781 52.699219 132.78125 60.238281 C 132.371094 64.066406 133.289062 67.941406 134.988281 71.464844 C 135.824219 73.203125 137.007812 75.210938 138.46875 76.914062 C 138.261719 76.9375 138.0625 76.964844 137.863281 76.996094 C 134.382812 77.4375 130.929688 77.96875 127.683594 78.207031 C 106.976562 79.71875 74.285156 85.125 57.933594 97.953125 C 48.0625 105.699219 41.839844 122.316406 49.65625 140.226562 C 47.875 139.890625 41.148438 147.8125 40.960938 161.457031 C 40.839844 170.554688 44.101562 179.253906 49.582031 186.4375 C 50.3125 187.390625 51.082031 188.3125 51.878906 189.207031 C 51.804688 189.296875 51.738281 189.386719 51.664062 189.476562 C 51.363281 189.636719 51.109375 189.863281 50.910156 190.203125 C 50.804688 190.386719 50.738281 190.59375 50.6875 190.8125 C 47.757812 195.417969 47.226562 202.164062 47.535156 207.292969 C 44.496094 208.539062 40.847656 210.257812 36.675781 212.808594 C 28.296875 217.449219 10.621094 224.535156 9.046875 241.75 C 8.195312 251.046875 13.316406 260.3125 24.265625 269.28125 C 35.296875 278.3125 52.609375 289.152344 78.367188 297.546875 C 119.109375 331.203125 243.066406 331.910156 293.804688 298.972656 C 294.632812 298.433594 295.378906 298.09375 295.960938 297.734375 C 296.097656 297.660156 296.230469 297.585938 296.359375 297.507812 C 306.898438 294.5 319.621094 289.707031 332.5625 282.105469 C 341.597656 277.328125 348.613281 272.164062 353.773438 266.832031 C 354.542969 266.160156 355.308594 265.496094 356.066406 264.800781 L 356.195312 264.671875 C 364.171875 255.816406 367.257812 246.855469 365.371094 238.023438 " fill-opacity="1" fill-rule="nonzero"/></g></svg>