<?xml version="1.0" encoding="UTF-8"?><svg xmlns="http://www.w3.org/2000/svg" xmlns:xlink="http://www.w3.org/1999/xlink" width="375" zoomAndPan="magnify" viewBox="0 0 375 374.999991" height="374.999991" preserveAspectRatio="xMidYMid meet" version="1.0"><defs><clipPath id="clip-0"><path d="M 7 29.492188 L 368 29.492188 L 368 345.242188 L 7 345.242188 Z M 7 29.492188 " clip-rule="nonzero"/></clipPath></defs><path fill="rgb(34.899902%, 34.118652%, 34.118652%)" d="M 318.207031 76.960938 C 318.441406 76.960938 318.660156 77.050781 318.820312 77.214844 L 319.34375 77.738281 C 319.675781 78.066406 319.675781 78.632812 319.34375 78.964844 L 285.683594 112.621094 C 285.359375 112.945312 284.78125 112.945312 284.453125 112.621094 L 283.933594 112.097656 C 283.597656 111.761719 283.597656 111.199219 283.933594 110.867188 L 317.59375 77.214844 C 317.753906 77.050781 317.972656 76.960938 318.207031 76.960938 Z M 281.832031 114.195312 L 282.355469 114.71875 C 283.078125 115.441406 284.042969 115.839844 285.070312 115.839844 C 286.097656 115.839844 287.0625 115.441406 287.785156 114.71875 L 321.445312 81.066406 C 322.941406 79.566406 322.941406 77.132812 321.441406 75.636719 L 320.921875 75.113281 C 320.199219 74.390625 319.234375 73.992188 318.207031 73.992188 C 317.179688 73.992188 316.214844 74.390625 315.492188 75.113281 L 281.832031 108.765625 C 280.335938 110.265625 280.335938 112.699219 281.832031 114.195312 " fill-opacity="1" fill-rule="nonzero"/><path fill="rgb(34.899902%, 34.118652%, 34.118652%)" d="M 299.457031 58.554688 L 299.988281 59.066406 C 300.320312 59.386719 300.335938 59.945312 300.015625 60.285156 L 267.40625 94.972656 C 267.183594 95.210938 266.914062 95.25 266.773438 95.25 C 266.546875 95.25 266.332031 95.164062 266.167969 95.003906 L 265.640625 94.492188 C 265.304688 94.167969 265.289062 93.609375 265.609375 93.273438 L 298.21875 58.582031 C 298.441406 58.34375 298.710938 58.308594 298.851562 58.308594 C 299.078125 58.308594 299.292969 58.394531 299.457031 58.554688 Z M 264.105469 97.140625 C 264.828125 97.835938 265.773438 98.21875 266.773438 98.21875 C 267.828125 98.21875 268.847656 97.777344 269.570312 97.007812 L 302.179688 62.320312 C 303.609375 60.796875 303.550781 58.382812 302.050781 56.929688 L 301.519531 56.417969 C 300.800781 55.722656 299.851562 55.339844 298.851562 55.339844 C 297.796875 55.339844 296.777344 55.777344 296.054688 56.546875 L 263.441406 91.234375 C 262.011719 92.757812 262.074219 95.175781 263.574219 96.628906 L 264.105469 97.140625 " fill-opacity="1" fill-rule="nonzero"/><path fill="rgb(34.899902%, 34.118652%, 34.118652%)" d="M 336.867188 96.308594 C 337.007812 96.308594 337.277344 96.339844 337.496094 96.566406 L 338.007812 97.097656 C 338.171875 97.269531 338.257812 97.488281 338.25 97.722656 C 338.246094 97.957031 338.148438 98.175781 337.976562 98.335938 L 303.285156 130.9375 C 303.125 131.089844 302.914062 131.171875 302.691406 131.171875 C 302.550781 131.171875 302.28125 131.136719 302.0625 130.910156 L 301.550781 130.378906 C 301.386719 130.210938 301.300781 129.988281 301.304688 129.753906 C 301.3125 129.519531 301.410156 129.300781 301.582031 129.140625 L 336.277344 96.539062 C 336.429688 96.390625 336.644531 96.308594 336.867188 96.308594 Z M 298.335938 129.679688 C 298.3125 130.714844 298.695312 131.699219 299.414062 132.441406 L 299.925781 132.972656 C 300.644531 133.714844 301.648438 134.140625 302.691406 134.140625 C 303.675781 134.140625 304.605469 133.769531 305.316406 133.101562 L 340.011719 100.5 C 340.765625 99.792969 341.195312 98.832031 341.21875 97.792969 C 341.246094 96.761719 340.863281 95.78125 340.144531 95.035156 L 339.632812 94.503906 C 338.914062 93.761719 337.90625 93.339844 336.867188 93.339844 C 335.882812 93.339844 334.949219 93.707031 334.238281 94.375 L 299.546875 126.976562 C 298.792969 127.6875 298.359375 128.648438 298.335938 129.679688 " fill-opacity="1" fill-rule="nonzero"/><g clip-path="url(#clip-0)"><path fill="rgb(34.899902%, 34.118652%, 34.118652%)" d="M 175.007812 228.941406 L 170.304688 240.359375 L 71.308594 339.335938 C 69.433594 341.21875 66.921875 342.25 64.242188 342.25 C 61.5625 342.25 59.054688 341.21875 57.175781 339.335938 C 53.28125 335.441406 53.28125 329.101562 57.175781 325.207031 L 63.851562 318.527344 L 70.015625 324.691406 C 70.304688 324.980469 70.683594 325.125 71.066406 325.125 C 71.445312 325.125 71.824219 324.980469 72.113281 324.691406 C 72.695312 324.109375 72.695312 323.171875 72.113281 322.589844 L 65.949219 316.425781 L 155.328125 227.066406 L 160.277344 232.011719 C 160.566406 232.300781 160.945312 232.445312 161.324219 232.445312 C 161.707031 232.445312 162.085938 232.300781 162.375 232.011719 C 162.957031 231.429688 162.957031 230.492188 162.375 229.910156 L 157.953125 225.492188 L 167.589844 221.523438 C 167.773438 221.449219 167.9375 221.339844 168.074219 221.203125 L 178.019531 211.257812 L 185.273438 218.515625 L 175.332031 228.457031 C 175.191406 228.597656 175.082031 228.761719 175.007812 228.941406 Z M 235.621094 153.664062 C 235.773438 153.515625 235.917969 153.351562 236.066406 153.199219 L 239.707031 156.835938 C 239.996094 157.125 240.375 157.273438 240.757812 157.273438 C 241.136719 157.273438 241.515625 157.125 241.804688 156.835938 C 242.386719 156.257812 242.386719 155.316406 241.804688 154.738281 L 238.039062 150.972656 C 243.609375 144.078125 246.257812 135.296875 245.351562 126.359375 L 244.789062 120.761719 C 243.535156 108.394531 246.960938 95.691406 254.429688 84.996094 L 285.535156 40.460938 C 288.984375 35.53125 294.703125 32.46875 300.46875 32.46875 C 301.878906 32.46875 303.273438 32.648438 304.613281 33.007812 C 333.773438 40.753906 355.808594 62.789062 363.558594 91.941406 C 365.417969 98.933594 362.421875 106.601562 356.101562 111.011719 L 311.5625 142.117188 C 302.425781 148.496094 291.496094 152.007812 280.789062 152.007812 C 279.117188 152.007812 277.433594 151.925781 275.789062 151.757812 L 270.1875 151.191406 C 269.058594 151.078125 267.914062 151.019531 266.78125 151.019531 C 257.753906 151.019531 249.265625 154.539062 242.878906 160.921875 L 196.730469 207.058594 L 189.472656 199.804688 Z M 11.1875 91.941406 C 18.941406 62.789062 40.976562 40.753906 70.136719 33.007812 C 71.476562 32.648438 72.871094 32.46875 74.277344 32.46875 C 80.042969 32.46875 85.765625 35.53125 89.210938 40.460938 L 120.320312 84.996094 C 127.789062 95.691406 131.214844 108.394531 129.960938 120.761719 L 129.398438 126.359375 C 128.492188 135.296875 131.136719 144.078125 136.710938 150.972656 L 132.941406 154.738281 C 132.363281 155.316406 132.363281 156.257812 132.941406 156.835938 C 133.234375 157.125 133.613281 157.273438 133.992188 157.273438 C 134.371094 157.273438 134.753906 157.125 135.042969 156.835938 L 138.683594 153.199219 C 138.832031 153.351562 138.972656 153.515625 139.128906 153.664062 L 206.675781 221.203125 C 206.8125 221.339844 206.976562 221.449219 207.15625 221.523438 L 216.792969 225.492188 L 212.375 229.910156 C 211.792969 230.492188 211.792969 231.429688 212.375 232.011719 C 212.664062 232.300781 213.042969 232.445312 213.425781 232.445312 C 213.804688 232.445312 214.183594 232.300781 214.472656 232.011719 L 219.417969 227.066406 L 308.796875 316.425781 L 302.632812 322.589844 C 302.054688 323.171875 302.054688 324.109375 302.632812 324.691406 C 302.921875 324.980469 303.304688 325.125 303.683594 325.125 C 304.0625 325.125 304.445312 324.980469 304.734375 324.691406 L 310.898438 318.527344 L 317.574219 325.207031 C 321.46875 329.101562 321.46875 335.441406 317.574219 339.335938 C 315.695312 341.21875 313.183594 342.25 310.503906 342.25 C 307.828125 342.25 305.316406 341.21875 303.4375 339.335938 L 204.441406 240.359375 L 199.742188 228.941406 C 199.664062 228.761719 199.554688 228.597656 199.417969 228.457031 L 131.871094 160.921875 C 125.484375 154.539062 116.996094 151.019531 107.964844 151.019531 C 106.835938 151.019531 105.6875 151.078125 104.5625 151.191406 L 98.960938 151.757812 C 97.3125 151.925781 95.628906 152.007812 93.960938 152.007812 C 83.253906 152.007812 72.324219 148.496094 63.1875 142.117188 L 18.648438 111.011719 C 12.324219 106.601562 9.328125 98.933594 11.1875 91.941406 Z M 16.949219 113.449219 L 61.488281 144.550781 C 71.257812 151.371094 82.488281 154.980469 93.960938 154.980469 C 95.730469 154.980469 97.511719 154.890625 99.257812 154.710938 L 104.859375 154.148438 C 105.886719 154.042969 106.933594 153.988281 107.964844 153.988281 C 116.203125 153.988281 123.945312 157.199219 129.769531 163.019531 L 175.917969 209.160156 L 166.183594 218.890625 L 154.777344 223.589844 C 154.773438 223.589844 154.769531 223.59375 154.769531 223.59375 L 154.765625 223.59375 C 154.742188 223.605469 154.722656 223.621094 154.695312 223.628906 C 154.632812 223.65625 154.570312 223.6875 154.507812 223.730469 C 154.425781 223.785156 154.351562 223.847656 154.277344 223.917969 L 55.074219 323.105469 C 50.019531 328.15625 50.019531 336.382812 55.074219 341.4375 C 57.515625 343.878906 60.769531 345.21875 64.242188 345.21875 C 67.714844 345.21875 70.972656 343.878906 73.410156 341.4375 L 172.617188 242.25 C 172.753906 242.113281 172.863281 241.949219 172.941406 241.765625 L 177.640625 230.34375 L 187.375 220.617188 L 197.109375 230.34375 L 201.808594 241.765625 C 201.882812 241.949219 201.996094 242.113281 202.132812 242.25 L 301.339844 341.4375 C 303.777344 343.878906 307.03125 345.21875 310.503906 345.21875 C 313.976562 345.21875 317.234375 343.878906 319.671875 341.4375 C 324.726562 336.382812 324.726562 328.15625 319.671875 323.105469 L 220.46875 223.917969 C 220.398438 223.847656 220.324219 223.785156 220.242188 223.730469 C 220.179688 223.6875 220.117188 223.65625 220.050781 223.628906 C 220.027344 223.621094 220.007812 223.605469 219.984375 223.59375 L 219.980469 223.59375 C 219.980469 223.59375 219.976562 223.589844 219.976562 223.589844 L 208.566406 218.890625 L 198.828125 209.160156 L 244.980469 163.019531 C 250.804688 157.199219 258.546875 153.988281 266.78125 153.988281 C 267.8125 153.988281 268.859375 154.042969 269.886719 154.148438 L 275.488281 154.710938 C 277.234375 154.890625 279.019531 154.980469 280.785156 154.980469 C 280.789062 154.980469 280.789062 154.980469 280.789062 154.980469 C 292.261719 154.980469 303.492188 151.371094 313.261719 144.550781 L 357.800781 113.449219 C 365.140625 108.324219 368.609375 99.375 366.429688 91.179688 C 358.402344 60.980469 335.578125 38.164062 305.375 30.136719 C 303.789062 29.714844 302.136719 29.5 300.46875 29.5 C 293.644531 29.5 287.152344 32.964844 283.101562 38.761719 L 251.996094 83.292969 C 244.117188 94.574219 240.507812 107.984375 241.832031 121.0625 L 242.398438 126.660156 C 243.261719 135.199219 240.566406 143.582031 234.980469 149.992188 C 234.976562 149.996094 234.972656 149.996094 234.96875 150 C 234.933594 150.039062 234.90625 150.082031 234.871094 150.121094 C 234.4375 150.613281 233.992188 151.097656 233.519531 151.566406 L 187.375 197.707031 L 141.226562 151.566406 C 140.757812 151.097656 140.3125 150.613281 139.878906 150.121094 C 139.84375 150.082031 139.816406 150.039062 139.78125 150 C 139.777344 149.996094 139.769531 149.996094 139.769531 149.992188 C 134.179688 143.578125 131.488281 135.195312 132.347656 126.660156 L 132.917969 121.0625 C 134.242188 107.984375 130.628906 94.574219 122.753906 83.292969 L 91.648438 38.761719 C 87.59375 32.964844 81.101562 29.5 74.277344 29.5 C 72.613281 29.5 70.960938 29.714844 69.371094 30.136719 C 39.167969 38.164062 16.34375 60.980469 8.316406 91.179688 C 6.140625 99.375 9.609375 108.324219 16.949219 113.449219 " fill-opacity="1" fill-rule="nonzero"/></g><path fill="rgb(34.899902%, 34.118652%, 34.118652%)" d="M 55.40625 77.738281 L 55.925781 77.214844 C 56.089844 77.050781 56.308594 76.960938 56.542969 76.960938 C 56.777344 76.960938 56.992188 77.050781 57.15625 77.214844 L 90.816406 110.867188 C 91.148438 111.199219 91.148438 111.761719 90.816406 112.097656 L 90.292969 112.621094 C 89.972656 112.945312 89.390625 112.945312 89.0625 112.621094 L 55.40625 78.964844 C 55.070312 78.632812 55.070312 78.066406 55.40625 77.738281 Z M 86.964844 114.71875 C 87.6875 115.441406 88.652344 115.839844 89.679688 115.839844 C 90.707031 115.839844 91.671875 115.441406 92.394531 114.71875 L 92.914062 114.195312 C 94.414062 112.699219 94.414062 110.265625 92.914062 108.765625 L 59.257812 75.113281 C 58.53125 74.390625 57.570312 73.992188 56.542969 73.992188 C 55.515625 73.992188 54.550781 74.390625 53.828125 75.113281 L 53.304688 75.636719 C 51.804688 77.132812 51.804688 79.566406 53.304688 81.066406 L 86.964844 114.71875 " fill-opacity="1" fill-rule="nonzero"/><path fill="rgb(34.899902%, 34.118652%, 34.118652%)" d="M 74.761719 59.066406 L 75.292969 58.554688 C 75.457031 58.394531 75.671875 58.308594 75.898438 58.308594 C 76.039062 58.308594 76.304688 58.34375 76.53125 58.582031 L 109.140625 93.273438 C 109.460938 93.609375 109.445312 94.167969 109.113281 94.492188 L 108.578125 95.003906 C 108.417969 95.164062 108.199219 95.25 107.976562 95.25 C 107.835938 95.25 107.566406 95.210938 107.339844 94.972656 L 74.734375 60.285156 C 74.414062 59.945312 74.425781 59.386719 74.761719 59.066406 Z M 105.179688 97.007812 C 105.902344 97.777344 106.921875 98.21875 107.976562 98.21875 C 108.976562 98.21875 109.921875 97.835938 110.640625 97.140625 L 111.175781 96.628906 C 112.675781 95.175781 112.734375 92.757812 111.304688 91.234375 L 78.695312 56.546875 C 77.972656 55.777344 76.953125 55.339844 75.898438 55.339844 C 74.894531 55.339844 73.949219 55.722656 73.226562 56.417969 L 72.699219 56.929688 C 71.195312 58.382812 71.136719 60.796875 72.566406 62.320312 L 105.179688 97.007812 " fill-opacity="1" fill-rule="nonzero"/><path fill="rgb(34.899902%, 34.118652%, 34.118652%)" d="M 36.738281 97.097656 L 37.253906 96.566406 C 37.472656 96.339844 37.738281 96.308594 37.882812 96.308594 C 38.105469 96.308594 38.320312 96.390625 38.472656 96.539062 L 73.167969 129.140625 C 73.339844 129.300781 73.4375 129.519531 73.441406 129.753906 C 73.449219 129.988281 73.363281 130.210938 73.199219 130.378906 L 72.683594 130.910156 C 72.46875 131.136719 72.199219 131.171875 72.058594 131.171875 C 71.835938 131.171875 71.625 131.089844 71.464844 130.9375 L 36.769531 98.335938 C 36.597656 98.175781 36.503906 97.957031 36.5 97.722656 C 36.492188 97.488281 36.578125 97.269531 36.738281 97.097656 Z M 69.429688 133.101562 C 70.140625 133.769531 71.074219 134.140625 72.058594 134.140625 C 73.097656 134.140625 74.105469 133.714844 74.820312 132.972656 L 75.335938 132.441406 C 76.050781 131.699219 76.4375 130.71875 76.410156 129.679688 C 76.386719 128.648438 75.957031 127.6875 75.203125 126.976562 L 40.507812 94.375 C 39.796875 93.707031 38.863281 93.339844 37.882812 93.339844 C 36.84375 93.339844 35.835938 93.761719 35.117188 94.503906 L 34.605469 95.035156 C 33.882812 95.78125 33.503906 96.761719 33.527344 97.792969 C 33.550781 98.828125 33.984375 99.792969 34.734375 100.5 L 69.429688 133.101562 " fill-opacity="1" fill-rule="nonzero"/></svg>